<?xml version="1.0" standalone="no"?><!DOCTYPE svg PUBLIC "-//W3C//DTD SVG 1.1//EN" "http://www.w3.org/Graphics/SVG/1.1/DTD/svg11.dtd"><svg t="1545203480405" class="icon" style="" viewBox="0 0 1820 1024" version="1.1" xmlns="http://www.w3.org/2000/svg" p-id="3940" xmlns:xlink="http://www.w3.org/1999/xlink" width="248.828125" height="140"><defs><style type="text/css"></style></defs><path d="M85.409185 558.648889L0 724.385185h55.314963l13.330963-29.866666h85.617778l12.42074 29.885629h61.477926l-81.483851-165.736296H85.409185z m27.610074 39.480889l26.396445 60.302222H85.086815l27.932444-60.302222zM236.240593 724.385185h53.096296v-165.736296h-53.096296zM321.460148 724.385185h53.096296v-115.370666h-53.096296V724.385185z m0-131.735704h53.096296V558.838519h-53.096296v33.829925zM510.78637 667.117037c0-10.183111-2.37037-18.204444-7.168-24.101926-4.740741-5.878519-11.245037-8.817778-19.437037-8.817778-8.779852 0-15.492741 2.825481-20.157629 8.476445-4.645926 5.669926-6.97837 13.880889-6.978371 24.651852 0 10.202074 2.332444 18.128593 7.016297 23.779555 4.702815 5.650963 11.264 8.476444 19.664592 8.476445 8.286815 0 14.866963-2.920296 19.721482-8.760889 4.892444-5.840593 7.338667-13.729185 7.338666-23.703704z m-106.439111-108.468148h53.134222v66.74963a63.601778 63.601778 0 0 1 21.200593-14.677334 65.934222 65.934222 0 0 1 25.694815-4.892444c18.090667 0 32.616296 5.802667 43.614815 17.426963 10.979556 11.605333 16.478815 27.003259 16.478815 46.193777 0 17.445926-5.423407 31.440593-16.25126 41.984-10.827852 10.524444-25.220741 15.777185-43.178666 15.777186-9.860741 0-18.849185-1.820444-26.908445-5.442371a56.073481 56.073481 0 0 1-20.650667-16.00474c0 3.830519-0.151704 7.300741-0.436148 10.429629-0.32237 3.147852-0.796444 5.878519-1.460148 8.210963h-53.115259c0.587852-2.180741 1.061926-4.892444 1.384296-8.154074 0.341333-3.242667 0.493037-6.959407 0.493037-11.150222V558.648889zM680.789333 674.417778c-17.180444 0-28.899556 1.118815-35.119407 3.356444-6.238815 2.23763-9.348741 6.162963-9.348741 11.776 0 3.811556 1.517037 6.788741 4.551111 8.912593 2.996148 2.142815 7.300741 3.204741 12.818963 3.204741 9.045333 0 15.815111-2.123852 20.328297-6.33363 4.513185-4.228741 6.769778-10.619259 6.769777-19.13363v-1.782518z m1.137778 32.957629a45.416296 45.416296 0 0 1-19.683555 14.829037c-8.040296 3.204741-17.825185 4.816593-29.278815 4.816593-16.308148 0-28.899556-2.920296-37.698371-8.741926-8.779852-5.840593-13.179259-14.127407-13.179259-24.841481 0-14.601481 7.585185-25.125926 22.755556-31.592297 15.17037-6.485333 40.561778-9.860741 76.174222-10.164148 0-0.227556 0.037926-0.663704 0.132741-1.289481 0.056889-0.644741 0.113778-1.118815 0.113777-1.422223 0-5.878519-1.801481-10.296889-5.328592-13.217185-3.527111-2.901333-8.817778-4.361481-15.928889-4.361481-6.390519 0-11.320889 1.042963-14.734222 3.185778a13.12237 13.12237 0 0 0-6.144 9.576296H590.127407c0.227556-12.8 6.257778-22.319407 18.10963-28.577185 11.851852-6.257778 29.942519-9.386667 54.234074-9.386667 23.343407 0 40.732444 3.659852 52.129185 10.960593 11.396741 7.300741 17.123556 18.394074 17.123556 33.28v58.842074c0 3.659852 0.170667 6.618074 0.474074 8.855703 0.341333 2.23763 0.948148 4.342519 1.744593 6.257778h-49.227852a49.455407 49.455407 0 0 1-2.787556-17.009778zM867.877926 667.117037c0-10.183111-2.37037-18.204444-7.149037-24.101926-4.778667-5.878519-11.245037-8.817778-19.437037-8.817778-8.798815 0-15.511704 2.825481-20.176593 8.476445-4.645926 5.669926-6.997333 13.880889-6.997333 24.651852 0 10.202074 2.37037 18.128593 7.054222 23.779555 4.683852 5.650963 11.264 8.476444 19.664593 8.476445 8.286815 0 14.829037-2.920296 19.721481-8.760889 4.892444-5.840593 7.319704-13.729185 7.319704-23.703704z m-106.401185-108.468148h53.096296v66.74963a63.488 63.488 0 0 1 21.238519-14.677334 66.010074 66.010074 0 0 1 25.675851-4.892444c18.071704 0 32.616296 5.802667 43.614815 17.426963 10.960593 11.605333 16.440889 27.003259 16.440889 46.193777 0 17.445926-5.385481 31.440593-16.251259 41.984-10.808889 10.524444-25.201778 15.777185-43.121778 15.777186-9.91763 0-18.887111-1.820444-26.927407-5.442371a55.978667 55.978667 0 0 1-20.66963-16.00474c0 3.830519-0.132741 7.300741-0.455111 10.429629-0.284444 3.147852-0.758519 5.878519-1.441185 8.210963h-53.11526c0.587852-2.180741 1.061926-4.892444 1.384297-8.154074a105.813333 105.813333 0 0 0 0.530963-11.150222V558.648889zM1037.899852 674.417778c-17.161481 0-28.880593 1.118815-35.119408 3.356444-6.257778 2.23763-9.386667 6.162963-9.386666 11.776 0 3.811556 1.517037 6.788741 4.551111 8.912593 3.053037 2.142815 7.319704 3.204741 12.856889 3.204741 9.007407 0 15.815111-2.123852 20.328296-6.33363 4.513185-4.228741 6.769778-10.619259 6.769778-19.13363v-1.782518z m1.118815 32.957629a45.359407 45.359407 0 0 1-19.683556 14.829037c-8.059259 3.204741-17.806222 4.816593-29.259852 4.816593-16.346074 0-28.899556-2.920296-37.69837-8.741926-8.779852-5.840593-13.198222-14.127407-13.198222-24.841481 0-14.601481 7.585185-25.125926 22.755555-31.592297 15.17037-6.485333 40.561778-9.860741 76.193185-10.164148 0-0.227556 0.018963-0.663704 0.113778-1.289481a12.705185 12.705185 0 0 0 0.094815-1.422223c0-5.878519-1.763556-10.296889-5.290667-13.217185-3.565037-2.901333-8.836741-4.361481-15.928889-4.361481-6.409481 0-11.320889 1.042963-14.734222 3.185778a13.084444 13.084444 0 0 0-6.144 9.576296h-49.019259c0.227556-12.8 6.257778-22.319407 18.10963-28.577185 11.851852-6.257778 29.961481-9.386667 54.272-9.386667 23.324444 0 40.694519 3.659852 52.091259 10.960593 11.415704 7.300741 17.142519 18.394074 17.142518 33.28v58.842074c0 3.659852 0.132741 6.618074 0.455111 8.855703 0.360296 2.23763 0.948148 4.342519 1.763556 6.257778h-49.246815a47.691852 47.691852 0 0 1-2.123852-8.343704 55.314963 55.314963 0 0 1-0.663703-8.666074zM1253.755259 659.949037V640.568889h69.385482v60.965926a122.500741 122.500741 0 0 1-32.95763 19.228444c-11.339852 4.28563-22.945185 6.447407-34.872889 6.447408-16.080593 0-30.701037-3.489185-43.84237-10.391704a68.608 68.608 0 0 1-29.771852-30.056296c-6.712889-13.084444-10.05037-27.742815-10.05037-43.89926 0-16.023704 3.299556-30.985481 9.993481-44.885333 6.637037-13.880889 16.251259-24.177778 28.747852-30.90963 12.515556-6.750815 26.927407-10.126222 43.235556-10.126222a85.333333 85.333333 0 0 1 32.142222 5.802667c9.53837 3.849481 17.066667 9.234963 22.490074 16.118518 5.44237 6.921481 9.576296 15.890963 12.382815 27.00326l-19.607704 5.385481c-2.465185-8.400593-5.499259-14.999704-9.140148-19.816296-3.640889-4.79763-8.855704-8.666074-15.625482-11.548445a56.699259 56.699259 0 0 0-22.509037-4.342518c-9.898667 0-18.450963 1.517037-25.637926 4.551111-7.243852 3.053037-13.065481 7.054222-17.464889 12.003556a57.325037 57.325037 0 0 0-10.315851 16.308148 86.603852 86.603852 0 0 0-6.257778 33.223111c0 14.715259 2.503111 27.041185 7.528296 36.939852 5.006222 9.91763 12.306963 17.256296 21.902222 22.053926 9.595259 4.816593 19.77837 7.205926 30.568297 7.205926 9.367704 0 18.507852-1.820444 27.420444-5.461334 8.931556-3.640889 15.701333-7.528296 20.309333-11.662222v-30.776889h-48.052148zM1352.343704 724.385185v-119.314963h18.128592v18.10963c4.645926-8.438519 8.912593-14.01363 12.856889-16.687408 3.925333-2.711704 8.229926-4.058074 12.951704-4.058074 6.807704 0 13.710222 2.161778 20.764444 6.447408l-7.016296 18.75437a29.013333 29.013333 0 0 0-14.791111-4.342518c-4.361481 0-8.343704 1.327407-11.832889 3.982222a21.731556 21.731556 0 0 0-7.509333 11.07437 78.885926 78.885926 0 0 0-3.356445 23.589926v62.464h-20.195555zM1445.641481 664.76563c0 15.284148 3.337481 26.737778 9.955556 34.322963 6.618074 7.604148 14.942815 11.415704 24.993185 11.415703 9.993481 0 18.280296-3.830519 24.898371-11.472592 6.637037-7.642074 9.936593-19.26637 9.936592-34.929778 0-14.753185-3.337481-25.941333-9.993481-33.526519a31.706074 31.706074 0 0 0-24.841482-11.415703c-10.05037 0-18.394074 3.792593-24.993185 11.358815-6.637037 7.566222-9.955556 18.962963-9.955556 34.247111m-20.726518-0.018963c0-22.091852 6.106074-38.437926 18.318222-49.057186 10.221037-8.836741 22.679704-13.255111 37.357037-13.255111 16.346074 0 29.677037 5.385481 40.068741 16.118519 10.334815 10.733037 15.511704 25.562074 15.511704 44.506074 0 15.341037-2.275556 27.401481-6.864593 36.200296a48.734815 48.734815 0 0 1-20.005926 20.48 58.216296 58.216296 0 0 1-28.709926 7.281778c-16.611556 0-30.056296-5.347556-40.315259-16.042667-10.24-10.695111-15.36-26.112-15.36-46.231703M1640.77037 724.385185v-17.635555c-9.234963 13.520593-21.788444 20.29037-37.622518 20.29037a47.786667 47.786667 0 0 1-19.626667-4.058074c-6.068148-2.692741-10.581333-6.068148-13.520592-10.164148a38.115556 38.115556 0 0 1-6.200889-14.980741c-0.796444-3.982222-1.21363-10.24-1.21363-18.868148v-73.898667h20.195556v66.104889c0 10.56237 0.417185 17.654519 1.232592 21.31437 1.251556 5.30963 3.925333 9.481481 8.021334 12.515556 4.096 3.034074 9.178074 4.551111 15.189333 4.551111 6.030222 0 11.700148-1.554963 16.952889-4.664889a25.78963 25.78963 0 0 0 11.245037-12.686222c2.180741-5.347556 3.299556-13.103407 3.299555-23.286518v-63.848297h20.176593v119.333926h-18.128593zM1712.033185 665.41037c0 15.36 3.090963 26.718815 9.272889 34.076445 6.181926 7.338667 13.653333 10.998519 22.414222 10.998518 8.912593 0 16.554667-3.792593 22.926223-11.39674 6.371556-7.604148 9.53837-19.399111 9.53837-35.346963 0-15.208296-3.090963-26.605037-9.291852-34.17126-6.238815-7.566222-13.653333-11.339852-22.262518-11.339851-8.571259 0-16.137481 4.020148-22.698667 12.079407-6.599111 8.059259-9.898667 19.759407-9.898667 35.119407z m-18.128592 104.656593v-164.977778h18.318222v15.492741c4.323556-6.068148 9.216-10.581333 14.639407-13.615407 5.44237-3.034074 12.060444-4.532148 19.797334-4.532149 10.126222 0 19.076741 2.616889 26.832592 7.86963 7.755852 5.233778 13.577481 12.629333 17.559704 22.167704 3.925333 9.53837 5.897481 19.986963 5.897481 31.36474 0 12.193185-2.161778 23.172741-6.523259 32.938667-4.361481 9.765926-10.676148 17.256296-18.981926 22.452148a48.545185 48.545185 0 0 1-26.168889 7.793778c-6.731852 0-12.724148-1.403259-18.033778-4.228741a40.808296 40.808296 0 0 1-13.141333-10.733037v58.007704h-20.195555zM567.333926 427.994074c-3.868444-0.436148-9.91763-3.887407-14.203259-7.338667-40.846222-40.182519 11.605333-86.376296 72.229926-113.152v-76.458666c14.184296 9.102222 21.902222 9.519407 22.33837 10.808889l46.459259-46.193778-15.511703-39.746371c135.850667-47.085037 190.426074-65.21363 300.942222-83.77837l-19.816297-18.583704 32.237037-18.583703c74.372741 24.632889 144.421926 31.099259 132.399408 93.752889 3.034074-42.344296-49.436444-58.766222-129.403259-81.199408l-15.435852 9.481482 29.639111 24.613926c-132.361481 22.907259-213.636741 48.791704-310.328889 82.488888l13.312 34.569482-48.583111 47.919407c8.154074 2.180741 92.842667 30.663111 180.982518-31.099259 0 0 1.706667-1.270519 1.706667-1.706667-2.578963-4.304593-8.609185-9.045333-15.909926-15.549629 25.78963 1.72563 42.571852 24.613926 39.556741 48.355555h-12.022519a43.102815 43.102815 0 0 0-3.470222-21.598814c-68.323556 50.100148-147.399111 57.457778-214.907259 33.697185v59.183407c-32.673185 11.643259-91.136 47.900444-90.718815 82.906074 2.161778 16.839111 10.752 22.888296 18.507852 27.211852" p-id="3941" fill="#8a8a8a"></path><path d="M843.719111 412.880593c-73.064296 37.129481-143.151407 66.939259-251.050667 71.262814-140.553481-3.034074-162.455704-96.749037-95.838814-194.787555 62.767407-98.891852 162.49363-188.302222 321.099851-244.034371 45.985185-16.384 113.493333-34.967704 178.820741-35.84 93.714963-0.853333 184.832 28.520296 178.820741 118.784-3.451259 69.101037-102.741333 166.684444-155.173926 236.657778-22.357333 30.682074-26.244741 50.555259 12.022519 48.810667 138.846815-9.064296 264.798815-57.400889 381.724444-107.52-79.094519 53.968593-487.898074 257.384296-489.623704 118.765037 0.436148-17.711407 8.628148-36.276148 21.940148-56.168296 12.894815-19.854222 30.966519-40.580741 49.417482-61.743408 27.932444-31.971556 97.166222-108.392296 120.376889-154.168889 39.120593-86.831407-48.583111-91.136-124.226371-117.911703l-32.256 18.583703 19.797334 18.583704c-110.497185 18.545778-165.072593 36.67437-300.923259 83.759407l15.49274 39.746371-46.440296 46.193778c-1.270519-1.289481-8.154074-1.72563-22.33837-10.808889v76.458666c-60.624593 26.756741-113.076148 72.969481-72.229926 113.152 4.28563 3.451259 10.334815 6.902519 14.222222 7.338667 74.334815 42.344296 276.783407-15.113481 276.366222-15.113481M1336.187259 466.697481V436.148148h13.463704c2.692741 0 4.740741 0.246519 6.106074 0.777482 1.479111 0.587852 2.541037 1.517037 3.375407 2.958222a8.173037 8.173037 0 0 1 1.270519 4.589037 8.154074 8.154074 0 0 1-2.085926 5.537185c-1.403259 1.422222-3.508148 2.332444-6.428444 2.806519 1.080889 0.512 1.877333 0.948148 2.427259 1.498074 1.156741 1.118815 2.275556 2.446222 3.280592 4.077037l5.290667 8.305777h-5.063111l-3.925333-6.27674a59.771259 59.771259 0 0 0-2.958223-4.266667 8.741926 8.741926 0 0 0-2.010074-2.029037 5.632 5.632 0 0 0-1.839407-0.853333 17.142519 17.142519 0 0 0-2.218667-0.132741h-4.626963v13.558518h-4.058074z m4.058074-17.180444h8.590223c1.839407 0 3.223704-0.18963 4.285629-0.512a5.233778 5.233778 0 0 0 2.351408-1.839407 5.271704 5.271704 0 0 0 0.796444-2.692741 4.702815 4.702815 0 0 0-1.573926-3.546074c-1.005037-0.891259-2.635852-1.365333-4.873481-1.365334h-9.576297v9.955556z" p-id="3942" fill="#8a8a8a"></path><path d="M1325.511111 451.432296c0-12.743111 10.334815-23.115852 23.021037-23.115852 12.705185 0 23.002074 10.372741 23.002074 23.115852 0 12.762074-10.315852 23.115852-23.002074 23.115852a23.077926 23.077926 0 0 1-23.002074-23.115852m23.002074 27.401482a27.382519 27.382519 0 0 0 0-54.802963c-15.03763 0-27.268741 12.288-27.268741 27.401481 0 15.094519 12.231111 27.401481 27.268741 27.401482M325.992296 819.958519v24.120888h83.019852v172.980149c9.291852 0 29.37363-9.02637 29.37363-27.742815v-145.237334c5.973333 0 10.884741-17.540741 10.884741-24.101926h-123.25926z m76.363852 127.677629c0 6.580148-3.811556 13.160296-8.685037 18.640593a54.613333 54.613333 0 0 1-8.760889 7.149037c-5.44237 3.792593-12.003556 6.030222-17.445926 6.561185h-34.379852v-120.604444h69.271704v88.253629z m-42.002963 9.860741h14.734222v-75.07437h-14.734222v75.07437z m-67.072-72.324741c0 3.26163-2.730667 8.779852-5.973333 12.041482-0.549926 0.606815-2.180741 2.256593-2.180741 2.256592-0.246519 0.18963-0.549926 0.512-1.099852 0.512h9.253926v56.964741h-11.453629v-112.867556h11.453629v41.092741z m-40.372148-65.194667v197.082075c13.653333 0 28.86163-12.439704 28.86163-26.130963v-10.334815h16.327111c10.94163-0.568889 23.552-15.947852 23.552-23.646815v-43.823407c0-8.248889-9.291852-14.222222-13.653334-17.540741 4.361481-3.830519 13.653333-10.410667 13.653334-18.659556v-56.945778h-68.740741zM579.072 994.322963h82.640593c-5.537185 8.343704-12.193185 22.831407-19.399112 22.831407h-175.74874v-22.831407h77.558518v-18.413037H468.764444V953.647407h75.358815v-15.587555H468.764444V819.958519h187.410963v91.894518c-0.587852 8.912593-20.840296 26.168889-33.298963 26.168889h-43.804444v15.606518h78.772148c-4.456296 7.831704-12.09837 22.262519-20.517926 22.262519h-58.254222v18.394074z m0-104.163556v25.618963h42.704593v-73.53837h-42.704593v25.6h39.405037c-1.706667 1.687704-14.999704 18.394074-17.787259 20.062815a10.56237 10.56237 0 0 1-6.637037 2.256592h-14.980741z m-34.948741-22.33837v-25.6h-41.547852v25.6h41.547852z m-41.547852 47.957333h41.547852v-25.618963h-41.547852v25.618963zM717.50163 991.592296h155.629037c-2.218667 8.476444-15.075556 25.637926-25.751704 25.637926H705.422222c-15.208296 0-23.286519-14.089481-23.286518-27.629037V819.958519h185.969777v89.069037c-0.568889 9.045333-20.005926 27.060148-30.833777 27.060148h-119.770074v55.504592z m0.227555-80.877037h41.528889v-65.403259h-41.528889v65.403259z m75.776 0h39.518815v-65.403259h-39.518815v65.403259zM931.783111 991.592296h155.704889c-2.23763 8.476444-15.113481 25.637926-25.827556 25.637926h-141.899851c-15.151407 0-23.305481-14.089481-23.305482-27.629037V819.958519h185.988741v89.069037c-0.568889 9.045333-19.986963 27.060148-30.871704 27.060148h-119.789037v55.504592z m0.32237-80.877037h41.490963v-65.403259h-41.490963v65.403259z m75.719112 0h39.537777v-65.403259h-39.537777v65.403259zM1210.55763 950.727111v-6.200889h13.937777v5.30963h84.461037s-2.085926 11.415704-20.498963 11.415704H1225.386667v30.682074c0 23.22963-14.829037 26.017185-14.829037 26.017185V962.180741h-100.617482v-11.434667h100.617482z" p-id="3943" fill="#8a8a8a"></path><path d="M1149.591704 979.911111h15.056592s-15.644444 20.271407-20.366222 25.581037c-4.721778 5.271704-10.998519 13.691259-20.062815 13.691259-5.082074 0-6.769778 0.113778-6.769778 0.113778l32.142223-39.386074zM1278.464 979.911111h-15.056593s15.663407 20.271407 20.366223 25.581037c4.721778 5.271704 10.998519 13.691259 20.062814 13.691259 5.082074 0 6.769778 0.113778 6.769778 0.113778l-32.142222-39.386074zM1288.457481 839.186963h-64.056888v17.749333h84.555851s-2.88237 11.58637-20.498963 11.586371h-64.056888v18.488889h84.555851s-2.88237 11.339852-20.498963 11.339851h-64.056888v18.735408h83.683555s-1.744593 10.733037-19.626667 10.733037h-134.485333s-1.877333 2.958222-24.158815 2.958222c-2.066963 0.18963-3.640889 0-3.640889 0v-64.113778h-15.341037l35.877926-46.895407h14.468741l-6.97837 8.836741h56.64237l7.035259-8.836741h13.880889l-6.144 7.964444h84.233482s-3.413333 11.45363-21.390223 11.45363z m-77.899851 18.62163V840.059259h-62.994963l-4.79763 6.162963-3.621926 5.214815 0.056889 6.371556h71.35763z m-71.35763 30.075259h71.35763v-17.578667h-71.35763v17.578667z m0 29.202963h71.35763v-17.844148h-71.35763v17.844148zM1518.174815 993.943704c0 7.205926-1.573926 12.837926-10.998519 12.837926h-146.488889v-174.573037h157.487408v161.754074z m-169.927111-173.283556v199.073185h166.684444c12.553481 0 17.332148-11.946667 16.725333-24.329481v-174.743704H1348.266667z" p-id="3944" fill="#8a8a8a"></path><path d="M1425.957926 905.310815l-42.135704 76.382815s14.108444 2.654815 20.574815-10.808889l35.84-65.365334-14.279111-0.189629z" p-id="3945" fill="#8a8a8a"></path><path d="M1475.659852 965.764741c0 4.114963-1.441185 6.181926-4.418371 6.181926h-14.070518v11.207111h17.901037c11.036444 0 14.677333-4.039111 14.089481-16.402963 0 0-0.094815-74.42963 0-74.42963 13.842963 0 14.734222-11.643259 14.734223-11.643259l-14.734223 0.170667v-25.675852h-13.501629v25.675852H1380.882963v12.363851h94.814815v72.552297z" p-id="3946" fill="#8a8a8a"></path></svg>