<?xml version="1.0" standalone="no"?><!DOCTYPE svg PUBLIC "-//W3C//DTD SVG 1.1//EN" "http://www.w3.org/Graphics/SVG/1.1/DTD/svg11.dtd"><svg t="1545203515604" class="icon" style="" viewBox="0 0 3122 1024" version="1.1" xmlns="http://www.w3.org/2000/svg" p-id="4355" xmlns:xlink="http://www.w3.org/1999/xlink" width="426.8359375" height="140"><defs><style type="text/css"></style></defs><path d="M2365.659285 297.744597H2279.355599v259.520629h70.26169l-25.080959 44.259332H2184.801572v-44.259332h50.294695V297.744597h-50.294695v-44.259332h50.294695v-46.810279l44.259332-17.234986V253.485265h85.927482l-0.050295-5.808031 0.541171-41.000236 45.637406-17.236998 0.400346 53.151434 62.687309-6.105776v-29.810672l44.259332-17.234986v40.740715c28.165029-3.379804 46.82235-5.055623 52.600204-5.055623 15.955489 0 29.71813 5.910633 41.503183 17.695686 13.55945 13.458861 20.568519 29.840849 20.568518 49.276731v150.521964c0 28.496974-9.109375 49.308919-26.871449 62.144126-13.066562 9.389014-30.711953 14.277658-52.477486 14.277658h-8.536015l25.038711-46.088047s6.453815-3.576959 11.642216-9.682735c3.381815-4.234813 4.932904-10.602122 4.932904-19.204526v-136.43945c0-24.097194-7.88822-36.179992-24.171631-36.179992-3.741925 0-8.839796 0.39431-15.931348 1.21512L2518.75835 276.109831V513.005894h-44.259332V280.672566l-62.365423 7.091552v233.252715c0 11.819253 1.768361 20.651002 6.298908 26.428857 5.1542 6.467898 13.654004 9.716935 26.392644 9.716935l189.588873-0.881163-25.04877 45.245108h-164.540103c-33.061721 0-55.744629-10.139411-67.992393-30.826625-7.745383-13.130939-11.652275-28.358161-11.652275-46.351591l0.478806-226.603757zM1344.640754 698.955442h43.796621l-17.337587 175.01347h-43.794609l1.806585-18.482295c-9.324637 8.107505-18.516495 13.951749-27.476998 17.49853-8.964527 3.611159-18.452118 5.383544-28.496974 5.383545-22.521965 0-41.169226-8.666782-55.907584-26.22969-14.675992-17.631308-20.781768-39.330452-18.156385-65.431387 2.625383-27.050499 12.770829-49.111764 30.432315-66.415151 17.631308-17.267175 37.821611-25.933957 60.570907-25.933957 10.505556 0 20.123914 1.96954 28.923474 6.007198 8.797548 3.941092 16.677721 9.948291 23.735072 17.892841l1.905163-19.303104z m-49.606664 35.948637c-13.52525 0-25.278114 4.858468-35.192204 14.444636-9.881902 9.652558-15.627568 21.86411-17.10422 36.900212-1.508841 15.100479 1.870963 27.577587 10.012668 37.326712 8.141705 9.785336 18.844417 14.67398 32.140322 14.67398 13.754593 0 25.672424-4.824267 35.717281-14.444637 9.980479-9.551969 15.792534-22.157831 17.269187-37.75321 1.543041-15.201069-1.740196-27.511198-9.881902-36.99879-8.107505-9.356825-19.105949-14.148904-32.961132-14.148903z m162.015309-35.950649h43.828809l-1.971552 20.061548c8.240283-8.274483 17.200786-14.446648 26.756778-18.484306 9.586169-4.069847 19.763804-6.139976 30.563081-6.139977 10.964244 0 20.486035 2.725972 28.726318 8.043128 8.272472 5.383544 14.575403 13.231528 18.878617 23.537918 7.976739-10.306389 17.333564-18.154373 27.969886-23.537918 10.636322-5.317155 21.994876-8.043128 33.944896-8.043128 12.408707 0 23.047041 2.890939 31.910978 8.700983 8.829737 5.777855 14.838947 13.394483 18.055796 22.650719 3.152472 9.389014 3.741925 24.523694 1.673807 45.534805l-10.175622 102.69171H1663.084637l8.765359-88.868716c1.971552-19.830193 0.822821-33.222664-3.379803-40.316227-4.204637-6.960786-11.261988-10.503544-21.077501-10.503545-7.483851 0-14.412448 2.132495-20.747568 6.498075-6.36932 4.269014-11.390743 10.179646-15.036102 17.762075-3.643348 7.55024-6.304943 19.695403-7.978751 36.409336l-7.811772 79.019002h-44.12253l8.369037-84.796857c1.641619-15.659756 1.545053-27.020322-0.032189-34.079686-1.641619-6.926585-4.562735-12.211552-8.831748-15.657744-4.232802-3.448204-9.682735-5.1542-16.217022-5.154201-7.254507 0-14.148904 2.198884-20.486035 6.532275-6.401509 4.269014-11.48932 10.439167-15.16888 18.287152-3.772102 7.811772-6.399497 20.156102-8.107505 36.966601l-7.713195 77.90246h-43.76242l17.301375-175.01347z m462.763505 0h43.76242l-17.333564 175.015482h-43.826797l1.838774-18.482295c-9.389014 8.107505-18.484306 13.951749-27.481022 17.49853-8.928314 3.611159-18.448094 5.383544-28.460762 5.383545-22.588354 0-41.169226-8.666782-55.907584-26.22969-14.710193-17.631308-20.815969-39.330452-18.222774-65.431387 2.627395-27.050499 12.805029-49.111764 30.466515-66.415151 17.597108-17.267175 37.821611-25.933957 60.568896-25.933957 10.473367 0 20.125925 1.96954 28.923473 6.007198 8.797548 3.941092 16.677721 9.948291 23.702884 17.892841l1.971553-19.303104z m-49.66903 35.950649c-13.493061 0-25.245925 4.858468-35.196228 14.444636-9.877878 9.652558-15.559167 21.86411-17.035819 36.900212-1.545053 15.100479 1.772385 27.577587 9.980479 37.326712 8.173894 9.785336 18.842405 14.67398 32.172511 14.67398 13.756605 0 25.606035-4.824267 35.685093-14.444637 9.980479-9.551969 15.724134-22.157831 17.333563-37.75321 1.478664-15.201069-1.804574-27.511198-9.91409-36.99879-8.208094-9.356825-19.140149-14.148904-33.025509-14.148903z m205.874295-35.950649l-1.903151 19.305116c8.698971-7.946562 17.85864-13.951749 27.440786-17.892841 9.555992-4.037658 19.602861-6.007198 30.106404-6.007198 22.785509 0 41.299992 8.666782 55.517297 25.931945 14.247481 17.305399 20.025336 39.366664 17.365752 66.417163-2.595206 26.100935-13.000173 47.800079-31.253123 65.431387-18.186562 17.562908-38.57402 26.22969-61.194562 26.22969-10.046868 0-19.204527-1.772385-27.545399-5.383545-8.240283-3.546782-16.24921-9.389014-24.028794-17.49853l-8.208094 82.435018h-43.466688l23.670696-238.966193h43.498876z m42.448723 35.950649c-13.788794 0-25.738813 4.792079-35.717281 14.148903-10.01468 9.487591-15.792534 21.797721-17.303387 36.996778-1.510853 15.597391 1.740196 28.203253 9.948291 37.757234 8.075316 9.616346 19.071749 14.442625 32.860542 14.442625 13.362295 0 25.117171-4.888644 35.226405-14.67398 10.113257-9.749124 15.957501-22.226232 17.432141-37.326712 1.480676-15.036102-1.772385-27.247654-9.847701-36.900212-8.010939-9.586169-18.876605-14.444637-32.59901-14.444636z m166.740998 93.202106c6.992974 0 12.702428 2.43024 17.102208 7.254507 4.466169 4.924857 6.304943 10.833477 5.6149 17.828463-0.690043 6.924574-3.741925 12.867395-9.12547 17.82444-5.449933 4.924857-11.656299 7.353084-18.548683 7.353085-6.992974 0-12.640063-2.428228-17.072032-7.353085-4.498358-4.957045-6.337132-10.899866-5.612888-17.82444 0.72022-6.994986 3.709737-12.903607 9.093281-17.828463 5.415733-4.824267 11.622098-7.254507 18.548684-7.254507z m272.911088-93.827772l-38.477453 20.123913c-6.105776-7.155929-12.408707-12.110963-18.810217-14.967701-6.435709-2.725972-14.150916-4.170436-23.143607-4.170436-16.3498 0-30.136582 4.856456-41.235615 14.67398-11.030633 9.817525-17.333564 22.391198-18.876605 37.656644-1.478664 14.903324 2.166695 27.082688 11.030633 36.473714 8.763348 9.419191 21.077501 14.183104 36.964589 14.183104 19.598837 0 35.522138-6.765642 47.802091-20.190303l32.172511 23.733061c-21.10969 24.459316-48.751654 36.574303-82.895718 36.574303-30.695859 0-53.871654-9.093281-69.434844-27.249666-15.561179-18.252951-22.127654-39.658373-19.729604-64.051301 1.705996-16.971442 7.419473-32.534633 17.301376-46.782114 9.91409-14.27967 22.781485-25.475269 38.803363-33.683363 15.856912-8.141705 33.224676-12.211552 51.938326-12.211553 17.301375 0 32.564809 3.448204 45.697761 10.37479 13.09875 6.960786 23.407151 16.808487 30.893013 29.512928z m150.063277-39.887718c16.480566 0 31.550868 4.168424 45.273273 12.412731 13.621815 8.238271 23.865839 19.496236 30.563081 33.647152 6.72943 14.150916 9.258248 29.44855 7.68503 45.796338-1.675819 16.482578-7.290719 31.947191-16.876889 46.355614-9.616346 14.348071-21.89831 25.541658-36.835834 33.683364-14.935513 8.109517-30.858813 12.080786-47.866468 12.080786-25.046758 0-45.564982-8.863937-61.454083-26.722578-15.923301-17.794263-22.652731-39.525595-20.125925-65.069265 2.725972-27.37842 14.971725-50.161917 36.803646-68.318303 19.105949-15.921289 40.018483-23.865839 62.834169-23.865839z m-3.347615 41.39857c-13.591639 0-25.40888 4.727701-35.423559 14.183104-10.012668 9.517768-15.691945 21.634766-17.200786 36.439513-1.480676 15.233257 1.772385 27.577587 9.813501 36.99879 7.976739 9.455403 18.812228 14.150916 32.566821 14.150915 13.690216 0 25.573847-4.761902 35.654915-14.283693 10.010656-9.584157 15.822711-21.86411 17.301376-36.866012 1.508841-15.003914-1.806585-27.215466-9.785336-36.572291-8.043128-9.389014-18.975183-14.050326-32.926932-14.050326z m155.577588-36.835835h43.828809l-1.96954 20.061548c8.308684-8.274483 17.234986-14.446648 26.756778-18.484306 9.618358-4.069847 19.763804-6.139976 30.530892-6.139977 10.964244 0 20.584613 2.725972 28.857084 8.043128 8.240283 5.383544 14.541202 13.231528 18.876606 23.537918 7.91035-10.306389 17.234986-18.154373 27.905508-23.537918 10.670523-5.317155 21.962688-8.043128 33.944896-8.043128 12.412731 0 23.014853 2.890939 31.87879 8.700983 8.831749 5.777855 14.838947 13.394483 18.087984 22.650719 3.218861 9.389014 3.709737 24.523694 1.641619 45.534805l-10.145446 102.69171h-44.118507l8.761336-88.868716c1.971552-19.830193 0.85501-33.222664-3.379803-40.316227-4.236825-6.960786-11.259976-10.503544-21.077501-10.503545-7.516039 0-14.412448 2.132495-20.779757 6.498075-6.337132 4.269014-11.392754 10.179646-15.038114 17.762075-3.611159 7.55024-6.268731 19.695403-7.94455 36.409336l-7.813784 79.019002h-44.090341l8.340872-84.796857c1.57523-15.659756 1.541029-27.020322-0.068401-34.079686-1.57523-6.926585-4.530546-12.211552-8.763348-15.657744-4.333391-3.448204-9.684747-5.1542-16.251222-5.154201-7.286695 0-14.116715 2.198884-20.516212 6.532275-6.403521 4.269014-11.426955 10.439167-15.136691 18.287152-3.741925 7.811772-6.397485 20.156102-8.107505 36.966601l-7.681006 77.90246h-43.830821l17.301375-175.01347zM1198.482358 602.107976v-148.226514c0-39.165485 20.520236-58.764322 61.488282-58.927277h317.989219c24.227961-0.197155 41.563536 4.36558 52.034891 14.050326 10.833477 10.077045 16.186845 22.882075 16.186845 38.541831v91.986986c0 42.219379-19.667238 63.198303-58.539002 62.836181l-34.564526-0.261533 26.821155-44.61743 6.069564-0.261532c10.606145 0 16.221045-7.091552 16.221045-21.339034v-76.886507c0-12.475096-6.731442-18.67945-20.123914-18.679449H1263.1211c-13.229517 0-19.828181 5.186389-19.828181 15.526978v146.256974h-44.810561z m0.261532-352.523567v-41.955835h201.082216l45.043929-18.188574v18.188574h210.044731l-26.857367 41.955835H1198.74389z m61.22675 19.926758h323.539741c16.476542 0 28.23343 2.723961 35.357171 8.733171 8.204071 6.795819 12.342318 17.365752 12.342318 31.746012v24.982381c0 14.084527-3.973281 24.952204-11.885642 32.566821-6.431686 6.105776-18.055796 9.19387-34.830083 9.19387H1262.632236c-17.595096 0-29.875049-2.661595-36.767434-8.010939-8.240283-6.304943-12.37853-16.086255-12.378531-29.349972v-32.041745c0-13.591639 4.532558-23.769273 13.55945-30.565092 6.632864-4.858468 17.595096-7.254507 32.924919-7.254507z m328.396197 56.762593v-5.087811c0-7.94455-4.757878-11.952031-14.27967-11.952032h-303.478193c-9.517768 0-14.27967 2.955316-14.279669 8.733171v6.369321c0 5.1542 1.213108 8.698971 3.641335 10.636322 2.10433 1.641619 5.880456 2.462428 11.392755 2.462428H1574.545855c9.226059 0 13.820982-3.709737 13.820982-11.161399z m-281.449116 137.324637h219.236589c17.468354 0 29.844872 2.890939 37.262334 9.226059 7.946562 6.467898 11.883631 16.808487 11.883631 31.02378v24.753037c0 27.020322-13.949737 40.513383-41.855246 40.513383H1309.577305c-11.915819 0-19.828181-0.85501-23.702885-2.627395-13.555426-6.302931-20.351246-19.500259-20.351245-39.559795v-26.690389c0-10.998444 3.971269-19.993147 11.883631-26.919733 7.222318-6.467898 17.102208-9.718947 29.512927-9.718947z m15.959513 66.972416h195.791214c9.523804 0 14.283694-2.68976 14.283693-8.008927v-9.684747c0-6.337132-4.75989-9.455403-14.283693-9.455402h-197.203489c-6.00921 0-9.883914 1.281509-11.656299 3.840503-1.279497 1.641619-1.905163 4.75989-1.905163 9.487591 0 5.449933 0.951576 9.127481 2.890939 10.899866 2.100306 1.937352 6.139976 2.921116 12.080786 2.921116z m368.31409-211.157249v-48.524322c17.890829-6.172165 30.726035-12.211552 38.475442-18.186562 9.026892-6.960786 16.414177-15.8891 22.226232-26.921745 5.317155-10.175623 10.569933-22.324809 15.724134-36.340935h48.588699c-8.043128 27.772731-16.184833 48.717454-24.425116 62.80198-21.767544 36.377147-55.283929 58.734145-100.589391 67.169572z m0 107.353021v-48.721477c19.204527-5.645077 33.616974-13.06455 43.299709-22.322798 11.459143-11.09501 22.423387-30.826625 32.862554-59.158632h48.852244c-9.324637 32.860542-20.584613 58.4022-33.81413 76.622962v229.182869H1737.379961v-190.113949c-15.955489 6.958774-31.351701 11.785053-46.190649 14.511025z m270.120739-158.536927v-23.505729h-132.763914v-37.097367h132.763914l44.746185-18.186562v18.186562h142.446648l-26.821155 37.097367h-115.625493v23.505729h89.494381c18.842405 0 31.055969 2.659583 36.53809 8.010939 4.989234 4.989234 7.483851 14.378248 7.483851 28.136865v48.453909c0 14.871136-2.428228 24.821438-7.254507 29.875049-5.351356 5.484134-14.772558 8.240283-28.299819 8.240283H1873.755033c-17.860652 0-28.889273-1.412275-33.093909-4.168424-4.200613-2.888927-7.186106-6.107788-8.960503-9.684747-2.100306-4.498358-3.152472-11.720676-3.152472-21.570389v-56.008172c0-20.876322 10.899866-31.283301 32.631199-31.283301h100.132715z m-132.763914 183.517297v-38.048943h319.954735l-26.819143 38.048943h-293.137603z m0 150.622554v-44.645595c4.858468-1.448487 7.912361-3.776126 9.193871-7.027175 1.11453-2.921116 2.265273-9.588181 3.379803-20.125926l5.351356-54.561697h39.396841l-6.534287 67.169572c-1.93534 19.864393-6.992974 34.502161-15.199057 43.860998-7.616629 8.27046-19.468071 13.392472-35.588527 15.329823z m90.971034-251.244134v-43.597454h-32.926932c-9.356825 0-14.018138 3.872692-14.018137 11.587898v15.760346c0 7.121729 0.688031 11.523521 2.164684 13.163128 2.102318 2.07013 5.747678 3.088094 10.899866 3.088094h33.878507z m-15.758334 124.883741h45.009729v72.520927c0 9.551969 5.777855 14.277658 17.432141 14.277658h108.073242l-26.819144 39.561808h-98.686239c-14.018138 0-24.918004-3.906892-32.665399-11.654287-8.208094-8.40525-12.34433-22.157831-12.34433-41.235615v-73.470491z m60.703685-124.883741h46.224849v-43.595442h-46.224849v43.595442z m29.02004 195.664472v-70.782743h44.484652v70.782743h-44.484652z m61.916793-195.66246h30.728048c6.270743 0 9.423214-5.319167 9.423214-15.955489v-15.040126c0-8.401226-4.071859-12.603851-12.312142-12.603851h-27.83912v43.599466z m28.068464 124.881729h39.42903l4.365579 54.561697c1.084354 12.607874 2.394028 20.125925 3.842515 22.556165 1.279497 2.263261 4.102035 3.806303 8.469627 4.596936v44.645595c-16.907065-1.150743-29.677894-7.059363-38.246099-17.695686-5.580699-6.992974-9.455403-16.480566-11.555709-28.62774-0.492888-3.709737-1.71002-17.95923-3.645359-42.645879l-2.659584-37.3931z m603.341202 56.171128V260.087953c0-23.242185 5.940809-40.93787 17.760063-53.117234 6.795819-6.828008 13.527261-11.390743 20.158114-13.690216 7.322908-2.558994 16.544943-3.874703 27.742554-3.874703h300.321698c18.122185 0 31.353713 2.758161 39.593996 8.272471 19.926758 12.869407 29.907238 32.174523 29.907237 58.044102V528.013831c0 21.634766-2.79035 36.735246-8.503827 45.367827-12.965972 19.339316-32.564809 28.989862-58.830711 28.989863h-299.830821c-21.86411 0-38.805375-5.908621-50.81776-17.794264-6.471921-6.69523-10.771112-12.933784-12.871419-18.743827-3.086083-8.469627-4.627112-19.667238-4.627112-33.651175zM2765.600692 557.265226h279.871874c12.016409 0 20.258703-2.659583 24.787238-8.04514 4.727701-5.351356 7.091552-13.720393 7.091552-25.115159V269.116857c0-12.672251-2.299473-21.208267-6.79582-25.606036-5.87442-6.00921-15.430413-8.996715-28.726318-8.996715H2769.970295c-13.100762 0-21.634766 1.279497-25.50947 3.874703-4.36558 2.957328-7.55024 6.172165-9.487591 9.783325-2.132495 3.906892-3.18466 10.865666-3.18466 20.944723v254.986059c0 12.34433 2.691772 21.14389 8.010939 26.330278 4.892668 4.562735 13.458861 6.83002 25.80319 6.83002z m-4.627112-148.455859v-37.294522h36.964589c18.31934 0 36.866012-0.724244 55.680251-2.200896-19.92877-12.342318-38.511654-25.016582-55.680251-38.016755h65.890075c8.76536 5.220589 25.871591 13.591639 51.310648 25.11516 33.224676-15.923301 54.368566-26.986122 63.459835-33.158287 8.109517-5.383544 12.147175-10.308401 12.147175-14.903324 0-4.530546-9.061092-6.795819-27.215466-6.79582h-142.971725c-8.731159 10.865666-16.776299 19.105949-24.097194 24.624283-7.749407 6.333108-19.007371 12.899583-33.781941 19.75978v-44.384063c7.946562-6.36932 15.233257-14.380259 21.89831-24.129383 2.233084-3.448204 6.467898-12.37853 12.638051-26.855355h47.866468l-3.152472 11.457131h127.935623c28.038287 0 48.063623 5.876432 60.047843 17.56492 7.123741 6.990963 10.702711 15.329823 10.702711 24.885815 0 12.998161-7.061375 25.342491-21.176079 37.030978-8.40525 7.188118-22.686931 16.677721-42.778656 28.561352 7.781595 0.293721 13.591639 0.557265 17.498531 0.72022 8.437438 0.462711 13.788794 0.724244 16.054066 0.724244h57.356071l-25.247937 37.294522h-26.722578c-29.384173 0-61.72165-3.906892-97.046632-11.688487-14.935513 4.39978-29.840849 7.222318-44.746185 8.536016-22.847874 2.068118-35.64888 3.152472-38.409053 3.152471h-74.42609zM1026.011788 321.886051h-151.541941l-20.713368 80.471513H1026.011788v376.276746C1026.011788 915.439906 919.455434 1024 784.939253 1024H700.102161V929.365501l-80.471513-51.270413V1024H244.643458C110.125265 1024 2.009776 915.439906 2.009776 778.63431V402.357564h195.143418v-80.471513H2.011788v-75.373642C2.011788 109.706813 110.127277 0 244.643458 0h374.985179v258.719937l80.471512-34.642986V0h84.837093C919.457446 0 1026.011788 109.706813 1026.011788 246.51442V321.886051z m1737.422208 148.113855v-37.292511h228.529037c7.451662 0 11.684464-3.086083 12.668228-9.292448h42.583513c-0.199167 7.845972-2.725972 15.693957-7.58444 23.670695-4.071859 6.828008-9.817525 12.277941-17.269187 16.3156-7.94455 4.431969-16.054067 6.598664-24.326538 6.598664h-234.600613z m0 62.180338v-37.294523h229.052102c4.858468 0 8.010939-0.75442 9.487592-2.198884 0.953587-0.985776 1.838774-3.349627 2.657571-7.091552h42.583513c-5.220589 31.055969-23.145619 46.584959-53.7429 46.584959h-230.037878zM701.063796 894.364417L889.109627 163.880236 108.898075 522.793242l205.584597 128.997846L889.109627 163.880236 376.385383 691.861878l-44.748196 157.985698 115.571174-114.772495 253.855435 159.289336zM350.051081 321.886051v52.893925L472.910963 321.886051H350.051081z" p-id="4356" fill="#8a8a8a"></path></svg>