<?xml version="1.0" standalone="no"?><!DOCTYPE svg PUBLIC "-//W3C//DTD SVG 1.1//EN" "http://www.w3.org/Graphics/SVG/1.1/DTD/svg11.dtd"><svg t="1545203545553" class="icon" style="" viewBox="0 0 4096 1024" version="1.1" xmlns="http://www.w3.org/2000/svg" p-id="4778" id="mx_n_1545203545556" xmlns:xlink="http://www.w3.org/1999/xlink" width="560" height="140"><defs><style type="text/css"></style></defs><path d="M1431.552 827.392s110.592 92.16 174.08 143.36c0 0 6.144 6.144 10.24 0 0 0 57.344-55.296 69.632-53.248 0 0 4.096 0-2.048 10.24 0 0-12.288 24.576-55.296 71.68 0 0-14.336 14.336-28.672 2.048 0 0-178.176-149.504-186.368-155.648 0 0-10.24-8.192-2.048-18.432 2.048-2.048 10.24-8.192 20.48 0M1280 825.7536s-110.592 92.16-174.08 143.36c0 0-6.144 6.144-10.24 0 0 0-57.344-55.296-69.632-53.248 0 0-4.096 0 2.048 10.24 0 0 12.288 24.576 55.296 71.68 0 0 14.336 14.336 28.672 2.048 0 0 178.176-149.504 186.368-155.648 0 0 10.24-8.192 2.048-18.432-2.048 0-10.24-8.192-20.48 0M1409.024 653.312s12.288-12.288 110.592-59.392c0 0 4.096-2.048 8.192 2.048 0 0 30.72 34.816 65.536 32.768 0 0 6.144 0 8.192-6.144 4.096-12.288-28.672-26.624-28.672-26.624-14.336-6.144-14.336-20.48-14.336-20.48 0-10.24-6.144-14.336-6.144-14.336-12.288-8.192-51.2 16.384-51.2 16.384-57.344 30.72-106.496 59.392-106.496 59.392s-12.288 6.144-8.192 16.384c4.096-2.048 8.192 6.144 22.528 0M1304.576 657.408s-12.288-12.288-114.688-53.248c0 0-4.096-2.048-8.192 2.048 0 0-28.672 36.864-63.488 36.864 0 0-6.144 0-8.192-6.144-6.144-12.288 26.624-26.624 26.624-26.624 14.336-8.192 12.288-22.528 12.288-22.528-2.048-8.192 4.096-14.336 4.096-14.336 10.24-10.24 51.2 12.288 51.2 12.288 59.392 26.624 108.544 51.2 108.544 51.2s14.336 6.144 8.192 16.384c2.048 0-2.048 10.24-16.384 4.096" p-id="4779" fill="#8a8a8a"></path><path d="M1452.032 811.008c0 73.728-43.008 135.168-98.304 135.168-53.248 0-98.304-59.392-98.304-135.168 0-73.728 43.008-135.168 98.304-135.168 53.248 0 98.304 59.392 98.304 135.168" p-id="4780" fill="#8a8a8a"></path><path d="M1413.12 626.688c0 36.864-26.624 67.584-57.344 67.584s-57.344-30.72-57.344-67.584 26.624-67.584 57.344-67.584 57.344 30.72 57.344 67.584M1214.464 280.576c-4.096-45.056 2.048-129.024 65.536-212.992l8.192 12.288s-53.248 67.584-49.152 182.272c-2.048 10.24-22.528 40.96-24.576 18.432" p-id="4781" fill="#8a8a8a"></path><path d="M1343.488 22.24128c12.288 14.336 6.144 36.864-12.288 51.2-16.384 16.384-40.96 18.432-53.248 4.096-10.24-12.288-4.096-34.816 12.288-51.2 18.432-14.336 43.008-16.384 53.248-4.096M1415.168 280.576s47.104-118.784 196.608-163.84l-2.048 14.336s-100.352 26.624-167.936 145.408l-26.624 4.096z" p-id="4782" fill="#8a8a8a"></path><path d="M1693.696 118.784c2.048 16.384-16.384 32.768-40.96 34.816-24.576 2.048-43.008-10.24-45.056-28.672-2.048-16.384 16.384-32.768 40.96-34.816 22.528-2.048 43.008 12.288 45.056 28.672M1341.44 329.728c-24.576 2.048-43.008 24.576-40.96 49.152 0 0 0 4.096 6.144 4.096s38.912-8.192 79.872-6.144c4.096 0 4.096-4.096 4.096-4.096-2.048-26.624-24.576-45.056-49.152-43.008" p-id="4783" fill="#8a8a8a"></path><path d="M1341.44 446.464c-159.744 8.192-151.552-83.968-151.552-83.968 2.048-88.064 141.312-88.064 141.312-88.064s161.792-12.288 163.84 79.872c-2.048 0 6.144 83.968-153.6 92.16m118.784 24.576c-53.248 32.768-143.36 47.104-227.328 18.432-14.336-6.144-10.24-26.624 8.192-20.48 55.296 16.384 131.072 22.528 206.848-16.384 18.432-10.24 26.624 10.24 12.288 18.432m98.304-86.016c-16.384-194.56-188.416-122.88-235.52-200.704-55.296 86.016-184.32 53.248-190.464 202.752-6.144 139.264 94.208 192.512 217.088 184.32 139.264-6.144 217.088-77.824 208.896-186.368" p-id="4784" fill="#8a8a8a"></path><path d="M1800.192 724.992l-49.152 108.544h22.528l14.336-32.768h40.96l14.336 32.768h22.528l-49.152-108.544h-16.384z m-4.096 57.344c4.096-10.24 8.192-16.384 12.288-24.576v-2.048l12.288 26.624h-24.576zM2902.016 724.992l-49.152 108.544h22.528l14.336-32.768h40.96l14.336 32.768h20.48l-49.152-108.544h-14.336z m-4.096 57.344c4.096-10.24 8.192-16.384 12.288-24.576v-2.048l12.288 26.624h-24.576zM1898.496 614.4h-26.624c0 6.144 2.048 16.384 4.096 28.672-8.192 4.096-24.576 4.096-40.96 6.144v-67.584h20.48c10.24 0 16.384-2.048 22.528-6.144 6.144-4.096 8.192-12.288 8.192-22.528v-116.736c0-10.24-2.048-16.384-8.192-22.528-6.144-4.096-12.288-6.144-22.528-6.144h-20.48v-32.768h-26.624v32.768h-20.48c-10.24 0-16.384 2.048-22.528 6.144-6.144 4.096-8.192 12.288-8.192 22.528V552.96c0 10.24 2.048 16.384 8.192 22.528 6.144 4.096 12.288 6.144 22.528 6.144h20.48v69.632h-57.344V675.84h59.392c18.432-2.048 55.296-2.048 69.632-8.192 2.048 6.144 2.048 12.288 4.096 16.384h26.624c-6.144-18.432-12.288-55.296-12.288-69.632z m-63.488-184.32h18.432c4.096 0 8.192 2.048 8.192 6.144v110.592c0 4.096-2.048 6.144-8.192 6.144h-18.432v-122.88z m-26.624 122.88h-18.432c-4.096 0-8.192-2.048-8.192-6.144v-110.592c0-4.096 2.048-6.144 8.192-6.144h18.432v122.88zM2809.856 727.04h20.48v106.496h-20.48z" p-id="4785" fill="#8a8a8a"></path><path d="M2037.76 651.264c0 4.096-2.048 8.192-6.144 8.192h-98.304l6.144 24.576h94.208c10.24 0 18.432-2.048 22.528-8.192 6.144-6.144 8.192-12.288 8.192-22.528v-114.688c0-10.24-2.048-16.384-8.192-22.528-4.096-2.048-8.192-4.096-12.288-4.096v-108.544c0-10.24-2.048-16.384-8.192-22.528-6.144-4.096-12.288-6.144-22.528-6.144h-114.688v24.576h112.64c4.096 0 8.192 2.048 8.192 6.144V512h-75.776c-4.096 0-8.192-2.048-8.192-6.144l8.192-83.968h-26.624l-8.192 86.016c0 10.24 2.048 16.384 8.192 22.528 6.144 6.144 12.288 6.144 22.528 6.144h90.112c4.096 0 8.192 2.048 8.192 6.144v34.816h-147.456v24.576h147.456v49.152zM3035.136 681.984h32.768c-6.144-6.144-28.672-32.768-49.152-65.536 30.72-47.104 43.008-77.824 45.056-86.016 4.096-14.336-4.096-30.72-22.528-30.72h-114.688v-96.256c0-4.096 2.048-6.144 8.192-6.144h88.064c4.096 0 8.192 2.048 8.192 6.144v40.96c0 4.096-2.048 8.192-6.144 8.192H2969.6v24.576h57.344c10.24 0 18.432-2.048 22.528-8.192 6.144-6.144 8.192-12.288 8.192-22.528v-45.056c0-10.24-2.048-16.384-8.192-22.528-6.144-4.096-12.288-6.144-22.528-6.144h-94.208c-10.24 0-16.384 2.048-22.528 6.144-6.144 4.096-8.192 12.288-8.192 20.48v282.624h26.624v-159.744h102.4c4.096 0 6.144 4.096 4.096 8.192-6.144 16.384-18.432 38.912-32.768 61.44-12.288-18.432-22.528-36.864-30.72-55.296h-30.72c6.144 14.336 20.48 45.056 43.008 79.872-20.48 28.672-40.96 55.296-49.152 65.536h32.768c12.288-14.336 22.528-28.672 32.768-40.96 10.24 14.336 22.528 28.672 34.816 40.96zM1964.032 729.088c-2.048 12.288-2.048 24.576-2.048 40.96v30.72L1904.64 724.992h-16.384v108.544h20.48v-59.392-14.336l2.048 2.048 55.296 71.68h18.432v-108.544h-20.48v4.096zM3006.464 808.96v-83.968h-20.48v83.968c0 26.624 24.576 26.624 32.768 26.624h40.96v-18.432h-40.96c-10.24 0-12.288-2.048-12.288-8.192zM2349.056 460.8l-16.384-88.064h-26.624l16.384 88.064zM2521.088 407.552c4.096-6.144 8.192-8.192 20.48-8.192h83.968c12.288 0 16.384 2.048 20.48 8.192 12.288 18.432 38.912 61.44 51.2 77.824h36.864c-12.288-18.432-45.056-69.632-57.344-88.064-10.24-14.336-22.528-22.528-40.96-22.528h-6.144v-2.048l-8.192-14.336c18.432-6.144 30.72-20.48 26.624-34.816s-22.528-20.48-45.056-14.336c-14.336 4.096-26.624 14.336-30.72 24.576-2.048-6.144-8.192-8.192-14.336-8.192 0-2.048 2.048-4.096 2.048-8.192 0-12.288-10.24-22.528-20.48-24.576v-20.48c0-2.048-2.048-6.144-6.144-6.144-2.048 0-6.144 2.048-6.144 6.144v20.48c-4.096 0-6.144 2.048-8.192 4.096l-12.288-14.336c-2.048-2.048-2.048-2.048-4.096-2.048s-2.048 0-4.096 2.048c-2.048 0-2.048 2.048-2.048 4.096s0 2.048 2.048 4.096l14.336 16.384c-2.048 4.096-4.096 8.192-4.096 12.288 0 14.336 12.288 26.624 26.624 24.576 2.048 0 4.096 0 6.144-2.048 0 4.096 2.048 8.192 6.144 12.288l-10.24 18.432v2.048h-4.096c-18.432 0-30.72 8.192-40.96 22.528-12.288 18.432-45.056 69.632-57.344 88.064h36.864c12.288-16.384 36.864-59.392 49.152-77.824z m90.112-47.104l6.144 12.288h-14.336l-2.048-10.24c2.048 0 6.144 0 10.24-2.048z m-30.72-6.144c2.048 2.048 6.144 4.096 10.24 6.144l2.048 14.336h-14.336l2.048-20.48z m-22.528 4.096c4.096 0 6.144 0 10.24-2.048l-2.048 18.432h-16.384l8.192-16.384zM2181.12 757.76c0-4.096 2.048-8.192 4.096-12.288 2.048-2.048 6.144-4.096 10.24-4.096h40.96v-18.432h-40.96c-10.24 0-18.432 2.048-24.576 8.192-6.144 6.144-10.24 14.336-10.24 24.576v75.776h20.48v-45.056h57.344v-18.432h-57.344V757.76zM2392.064 729.088c2.048 6.144 2.048 12.288 2.048 16.384v55.296l-59.392-75.776h-16.384v108.544h20.48v-4.096-47.104-22.528l55.296 73.728h18.432v-108.544h-20.48v4.096zM2011.136 745.472h36.864v88.064h20.48v-88.064h36.864v-18.432h-94.208zM2648.064 729.088v71.68l-57.344-75.776h-16.384v108.544h20.48v-4.096-40.96V759.808l55.296 73.728h18.432v-108.544h-20.48v4.096zM2267.136 727.04h20.48v106.496h-20.48zM2486.272 724.992l-49.152 108.544h22.528l14.336-32.768h40.96l14.336 32.768h22.528l-49.152-108.544h-16.384z m-4.096 57.344c4.096-10.24 8.192-16.384 12.288-24.576v-2.048l12.288 26.624h-24.576z" p-id="4786" fill="#8a8a8a"></path><path d="M2736.128 657.408h-61.44c2.048-4.096 2.048-8.192 4.096-14.336 2.048-8.192 4.096-36.864 6.144-45.056h-26.624c0 8.192-4.096 36.864-6.144 45.056 0 6.144-2.048 10.24-4.096 14.336h-49.152v-92.16h110.592v-24.576h-110.592v-55.296h69.632v-24.576h-165.888v24.576h69.632v55.296h-110.592v24.576h110.592v92.16h-49.152c-2.048-2.048-4.096-8.192-4.096-14.336-2.048-8.192-4.096-36.864-6.144-45.056h-26.624c0 8.192 4.096 36.864 6.144 45.056 0 6.144 2.048 10.24 4.096 14.336h-61.44v24.576h301.056v-24.576zM2752.512 724.992c-16.384 0-40.96 2.048-49.152 22.528-4.096 8.192-6.144 20.48-6.144 32.768s4.096 26.624 8.192 34.816c6.144 12.288 22.528 18.432 49.152 18.432h26.624v-18.432l-6.144 2.048h-20.48c-16.384 0-26.624-2.048-30.72-8.192s-6.144-16.384-6.144-28.672c0-10.24 2.048-20.48 4.096-26.624 4.096-8.192 12.288-10.24 30.72-10.24H2781.184v-18.432h-28.672zM2859.008 651.264c0 4.096-2.048 8.192-6.144 8.192h-32.768v24.576h34.816c10.24 0 18.432-2.048 22.528-8.192 6.144-6.144 8.192-12.288 8.192-22.528V401.408c0-10.24-2.048-16.384-8.192-22.528-6.144-4.096-12.288-6.144-22.528-6.144h-53.248c-10.24 0-16.384 2.048-22.528 6.144s-8.192 12.288-8.192 22.528v215.04c0 49.152-8.192 65.536-10.24 67.584h24.576c2.048 0 12.288-6.144 12.288-67.584v-34.816h61.44v69.632z m-61.44-247.808c0-4.096 2.048-6.144 8.192-6.144h45.056c4.096 0 8.192 2.048 8.192 6.144v55.296h-61.44v-55.296z m0 153.6v-73.728h61.44v73.728h-61.44zM2207.744 614.4c0 6.144 2.048 18.432 4.096 30.72-8.192 2.048-18.432 2.048-26.624 2.048v-67.584h20.48c10.24 0 16.384-2.048 22.528-6.144 6.144-4.096 8.192-12.288 8.192-22.528v-116.736c0-10.24-2.048-16.384-8.192-22.528-6.144-4.096-12.288-6.144-22.528-6.144h-20.48v-32.768h-26.624v32.768h-20.48c-10.24 0-16.384 2.048-22.528 6.144-6.144 4.096-8.192 12.288-8.192 22.528v116.736c0 10.24 2.048 16.384 8.192 22.528 6.144 4.096 12.288 6.144 22.528 6.144h20.48v69.632h-57.344v24.576h59.392c14.336 0 40.96 0 57.344-4.096 2.048 4.096 2.048 10.24 4.096 12.288h26.624c-6.144-16.384-12.288-55.296-14.336-67.584h-26.624z m-22.528-184.32h18.432c4.096 0 8.192 2.048 8.192 6.144v110.592c0 4.096-2.048 6.144-8.192 6.144h-18.432v-122.88z m-24.576 122.88h-18.432c-4.096 0-8.192-2.048-8.192-6.144v-110.592c0-4.096 2.048-6.144 8.192-6.144h18.432v122.88zM2285.568 684.032s20.48-30.72 43.008-61.44c22.528 32.768 43.008 61.44 43.008 61.44h34.816s-34.816-51.2-59.392-90.112c2.048-2.048 4.096-6.144 6.144-8.192 22.528-32.768 40.96-47.104 55.296-200.704h-28.672c-14.336 124.928-24.576 137.216-47.104 174.08-2.048 2.048-4.096 4.096-6.144 8.192-2.048-4.096-4.096-6.144-6.144-8.192-22.528-36.864-32.768-49.152-47.104-174.08h-28.672c14.336 153.6 34.816 165.888 55.296 200.704 6.144 2.048 8.192 4.096 10.24 8.192-24.576 38.912-59.392 90.112-59.392 90.112h34.816z" p-id="4787" fill="#8a8a8a"></path></svg>