<?xml version="1.0" standalone="no"?><!DOCTYPE svg PUBLIC "-//W3C//DTD SVG 1.1//EN" "http://www.w3.org/Graphics/SVG/1.1/DTD/svg11.dtd"><svg t="1545203588885" class="icon" style="" viewBox="0 0 2942 1024" version="1.1" xmlns="http://www.w3.org/2000/svg" p-id="5551" xmlns:xlink="http://www.w3.org/1999/xlink" width="402.2265625" height="140"><defs><style type="text/css"></style></defs><path d="M365.182422 307.879861a152.591 152.591 0 0 1-295.577616-53.093898v-32.374328a152.483086 152.483086 0 0 1 295.469701-53.309728h72.842239A222.195806 222.195806 0 0 0 0 222.195806v33.129729a222.195806 222.195806 0 0 0 437.916746 52.554326z m1254.505216 238.598799a222.195806 222.195806 0 0 0-222.195805 222.30372v33.129729a222.195806 222.195806 0 0 0 444.391611-0.647487v-32.374328a222.195806 222.195806 0 0 0-222.195806-222.30372z m152.591 254.785962a152.591 152.591 0 1 1-305.074085 0v-32.374328a152.591 152.591 0 1 1 305.074085 0zM1070.942776 0h69.604805v476.981768h-69.604805zM1143.892929 546.586574h-76.835073l-183.454526 476.873854h295.038044l-26.762778-69.604806H985.042892l120.648329-312.951839 147.519022 383.096217h74.676784zM701.443777 407.269048h69.604806v476.981769H701.443777z m73.489725 546.586574h-77.482559l-26.762778 69.604806h130.792286zM513.888502 337.772157H809.358204l-26.762778-69.71272H615.112235L718.602171 0h-74.676784zM753.566445 0l129.497313 337.772157h75.216356L828.243229 0zM374.786806 546.586574v367.772368L69.820634 546.586574H0v476.873854h69.604806V655.256402l305.182 368.204026h69.496891V546.586574zM2625.558015 620.615871h220.577089v117.195068l47.698177-18.453367V572.917694h-134.245548v-26.439034h-47.590262v26.439034h-134.137633v229.85773a23.849088 23.849088 0 0 0 23.741174 23.849089h291.368953v196.835915l47.590263-18.453367V778.926336H2625.558015zM2082.748446 667.558647h372.736431v47.698177H2082.748446z m30.108125-20.072084h47.698177v-26.870692h217.879228V647.486563h47.698177v-26.870692h47.698177v-47.698177h-47.698177v-26.33112h-47.698177v26.33112h-217.879228v-26.33112h-47.698177v26.33112h-47.806091v47.698177h47.806091z m0 88.597745h47.698177v71.223522h-47.698177z m265.577405 0h47.698177v71.223522h-47.698177z m-132.734745 0h47.590262v72.086838h-47.590262z" p-id="5552" fill="#8a8a8a"></path><path d="M2543.866793 973.06439h302.160396V924.826641h-283.599114z m-88.274001-127.231109h-161.871641v-19.532512h-47.698177v19.532512H2082.748446l-18.345453 47.698176h61.511223l-50.072294 129.497313h51.151439l50.072294-129.497313h68.74149v129.497313h47.698177v-129.497313h67.77026l51.043524 129.497313h51.151439l-50.93561-129.497313h61.942881zM2711.997471 647.486563h47.590262v87.950259h-47.590262z" p-id="5553" fill="#8a8a8a"></path></svg>