<svg id="图层_1" data-name="图层 1" xmlns="http://www.w3.org/2000/svg" viewBox="0 0 254.73 79.08"><defs><style>.cls-1{fill:#8a8a8a;}.cls-2{fill:#a7a7a7;}.cls-3{fill:#626262;}</style></defs><title>china-mobile</title><path class="cls-1" d="M158.25,167.79H144v-6.9h-3.75v6.9H126.21v19.44h14.08V197.8H144V187.23h14.21Zm-28.38,16V171.22h10.42V183.8Zm24.72,0H144V171.22h10.55Z" transform="translate(-28.27 -156.02)"/><path class="cls-1" d="M167,162.13v34.55h32.53V162.13Zm28.95,31.28H170.47v-27.9h25.47Z" transform="translate(-28.27 -156.02)"/><polygon class="cls-1" points="156.58 31.14 156.58 23.57 164.43 23.57 164.43 20.32 156.58 20.32 156.58 15.58 165.1 15.58 165.1 12.34 144.59 12.34 144.59 15.58 153.14 15.58 153.14 20.32 145.25 20.32 145.25 23.57 153.14 23.57 153.14 31.14 144.02 31.14 144.02 34.39 165.66 34.39 165.66 31.14 156.58 31.14"/><path class="cls-1" d="M189.75,186.78l2.81-2.24c-1.47-1.72-4.18-4.75-4.18-4.75l-2.62,2A52,52,0,0,1,189.75,186.78Z" transform="translate(-28.27 -156.02)"/><path class="cls-1" d="M219.39,185.07l2.39-2.79-6-5.13v-1.77h5.07v-3.25h-5.07v-5.21c2.34-.59,5.18-1.13,5.18-1.13l-.72-3.47c-3.06,1-13.24,2.07-13.24,2.07l.49,3.43,4.73-.77v5.08h-5.71v3.25h5.35a45.38,45.38,0,0,1-6,12.08l2.61,2.84a63.92,63.92,0,0,0,3.74-7v14.52h3.56v-16.2Z" transform="translate(-28.27 -156.02)"/><path class="cls-1" d="M233.5,179.53a16.8,16.8,0,0,0,.82-1.71l-3.37-.55c.51-.28,1-.57,1.48-.89,6.76-4.44,9-9.42,9-9.42v-3H229.77a21.76,21.76,0,0,0,1.24-2.25l-3.38-1.31a29.78,29.78,0,0,1-8.15,10.09l2.93,2.26a54.75,54.75,0,0,0,5.06-5.55h9.94a19.63,19.63,0,0,1-5.42,5.44l-4.4-3.64-2.3,2.39,3.69,3.12a43.63,43.63,0,0,1-8.78,3.6l2.25,2.83a81,81,0,0,0,7.71-3.27,23.89,23.89,0,0,1-4.56,5.52,29.44,29.44,0,0,1-6.19,4.36l2.66,2.66a33.27,33.27,0,0,0,9.19-7.44h7.44a12.36,12.36,0,0,1-5.81,7.86l-4-3.92-2.53,2.07s2.26,2.13,3.45,3.44a34.78,34.78,0,0,1-11.16,2.41l1.53,3c7.27-.56,12.18-2.56,15.59-5.16a19.55,19.55,0,0,0,7-9.8v-3.17Z" transform="translate(-28.27 -156.02)"/><rect class="cls-1" x="220.86" y="8.3" width="15.41" height="3.45"/><path class="cls-1" d="M261.56,192.26l3.53-1.38c-.74-1.8-4.27-9.6-4.27-9.6l-3.25,1.41c.9,1.9,1.8,4,2.52,5.79-1.61.38-5.84,1.36-7.93,2.05a45,45,0,0,0,2.9-6.86c1.54-4.24,1.8-5.51,2.41-6.31h8.41v-3.44H247.61v3.44h5.88a61.32,61.32,0,0,1-2.84,8.73,23.69,23.69,0,0,1-3.08,5.73l.86,2.71s9.24-2.8,12.8-3.14C261.45,191.93,261.56,192.26,261.56,192.26Z" transform="translate(-28.27 -156.02)"/><path class="cls-1" d="M273.16,168.54l.16-7.6h-3.88s0,3.39.05,7.6h-4.77V172h4.8c0,2.65,0,5.38-.2,7.26a25,25,0,0,1-1,6.11,17.44,17.44,0,0,1-7.48,10.3l2.78,2.63c10-6.39,9.37-20.61,9.37-20.61l.12-5.69h6.19l-.75,18.78a2.12,2.12,0,0,1-2.27,2.23H272l.7,3.72h4.08c5.25,0,5.45-5.36,5.45-5.36l.82-22.82Z" transform="translate(-28.27 -156.02)"/><rect class="cls-1" x="135.53" y="55.58" width="2.91" height="14.66"/><rect class="cls-1" x="135.53" y="49.71" width="2.91" height="3.28"/><rect class="cls-1" x="230.6" y="55.58" width="2.91" height="14.66"/><rect class="cls-1" x="236.65" y="48.13" width="2.91" height="22.11"/><rect class="cls-1" x="230.6" y="49.71" width="2.91" height="3.28"/><path class="cls-1" d="M157.35,211.37a6,6,0,0,0-5.7,1.72v-8.94h-2.91v22.11h2.91v-10a4.26,4.26,0,0,1,4.7-2.42s1.54.25,1.54,2.83v9.62h3v-9.53S161.23,212.34,157.35,211.37Z" transform="translate(-28.27 -156.02)"/><path class="cls-1" d="M178.27,211.37a6,6,0,0,0-5.84,1.9l-.46-1.73h-2.22v14.71h2.81v-9.93a4.67,4.67,0,0,1,4.71-2.51s1.54.25,1.54,2.83v9.62h3v-9.53S182.15,212.34,178.27,211.37Z" transform="translate(-28.27 -156.02)"/><path class="cls-1" d="M192.3,211.63c-3.48-1.28-7.24.45-7.24.45v2.7s7.73-3.46,7.73,2.63l0,.15s-4.21-1.27-6.54.15a4.76,4.76,0,0,0-2,6.07,4.93,4.93,0,0,0,4.58,2.84,8.1,8.1,0,0,0,4.09-1.57l.24,1.21h2.52V216.9S196,213,192.3,211.63Zm.37,10.9a5.88,5.88,0,0,1-3.88,1.49,2.13,2.13,0,0,1-2-2.52c.36-2.45,3.42-2.27,5.91-1.45Z" transform="translate(-28.27 -156.02)"/><polygon class="cls-1" points="186.09 64.83 179.83 49.81 175.87 49.81 175.87 70.24 178.81 70.24 178.81 54.67 185.35 70.24 186.79 70.24 193.32 54.78 193.32 70.24 196.31 70.24 196.31 49.81 192.38 49.81 186.09 64.83"/><path class="cls-1" d="M234.14,211.19a7.66,7.66,0,1,0,7.62,7.65A7.64,7.64,0,0,0,234.14,211.19Zm0,12.75a5.08,5.08,0,1,1,5-5.09A5.07,5.07,0,0,1,234.14,223.94Z" transform="translate(-28.27 -156.02)"/><path class="cls-1" d="M253,211.82a5.62,5.62,0,0,0-6.33.8v-8.39h-3v22.06H246l.39-1.3a5.6,5.6,0,0,0,3.62,1.65,6.23,6.23,0,0,0,4.64-2.07,8.88,8.88,0,0,0,2-4.25C256.89,218,256.84,213.66,253,211.82ZM250.19,224a3.75,3.75,0,0,1-3.55-1.65v-7.13a4.93,4.93,0,0,1,3.48-1.47c2.18,0,3.2,1.71,3.48,4.25S253.21,224,250.19,224Z" transform="translate(-28.27 -156.02)"/><path class="cls-1" d="M281.11,213.35a5.53,5.53,0,0,0-4.53-2.1,6.53,6.53,0,0,0-4.16,1.56,7.35,7.35,0,0,0-2.06,3.38c-1.29,5.15,1,8,1,8a7.36,7.36,0,0,0,5.21,2.44,11.66,11.66,0,0,0,5.4-.94v-2.5c-9.1,3.17-9.21-3.42-9.21-3.42h9.83C282.72,216.59,282,214.61,281.11,213.35Zm-8.05,3.83s.6-3.39,3.5-3.39,3,3.39,3,3.39Z" transform="translate(-28.27 -156.02)"/><path class="cls-1" d="M136.61,223.69a7.8,7.8,0,1,1,6.72-11.64h3.09a10.54,10.54,0,1,0,.05,7.52h-3.05A7.71,7.71,0,0,1,136.61,223.69Z" transform="translate(-28.27 -156.02)"/><path class="cls-2" d="M31.25,183s8,10.58,16.84,17.62a5.2,5.2,0,0,0,6.93-.39C58.6,197,73.38,183.5,73.38,183.5s5.56-5.52,11.79,0c0,0,13.07,11.64,20.23,21.4a.74.74,0,0,1,.07,1c-.35.63-1,2.34-1,2.34A128.45,128.45,0,0,0,87.5,190.5s-3.54-2.68-6.58.16-17.42,16-19.72,17.66-6.07,3.41-11.43-1.36c-4.19-3.72-15.15-14.08-19.46-20.62a.88.88,0,0,1-.07-1.05C30.61,184.45,31.25,183,31.25,183Z" transform="translate(-28.27 -156.02)"/><path class="cls-3" d="M32.88,179.76l4.57,5s.58.73,1.65-.19S54.27,170,59.65,166.14a19.47,19.47,0,0,1,10.06-3.88,18,18,0,0,1,8.88,1.53c3.45,1.55,8.69,5.79,13.62,10.89a129.75,129.75,0,0,1,9.85,11.45c2,2.62,3.85,5.25,5.28,7.54A13.8,13.8,0,0,0,106,187.8a88.25,88.25,0,0,0-17-21.38c-1.1-1-10.68-10.6-20-10.4a26.12,26.12,0,0,0-16.58,6C51.09,163.1,37.22,175.06,32.88,179.76Z" transform="translate(-28.27 -156.02)"/><path class="cls-3" d="M42.73,190.38l5.2,5a1.94,1.94,0,0,0,2.56-.38s5-4.89,9.27-8.8c4-3.69,8.08-7.47,9.6-8.55,0,0,6.53-6.79,14.86-.18a134.46,134.46,0,0,1,22.47,24.11l.38-1.79a3.56,3.56,0,0,0-.59-2.87S97.76,184.06,87,174.8c0,0-5.35-5.67-12.2-7.08a13.89,13.89,0,0,0-11,2.87c-2.64,2.07-8.36,7.4-13.13,11.94C46.22,186.74,42.73,190.38,42.73,190.38Z" transform="translate(-28.27 -156.02)"/><path class="cls-3" d="M102.73,211.35l-4.57-5s-.57-.73-1.64.2S81.35,221.13,76,225a19.42,19.42,0,0,1-10.06,3.88A18,18,0,0,1,57,227.32c-3.44-1.54-8.68-5.78-13.61-10.88A126.82,126.82,0,0,1,33.56,205c-2-2.61-3.85-5.24-5.29-7.54a13.89,13.89,0,0,0,1.4,5.87,88,88,0,0,0,17,21.38c1.1,1,10.68,10.61,20,10.39a26.09,26.09,0,0,0,16.58-6C84.53,228,98.4,216.05,102.73,211.35Z" transform="translate(-28.27 -156.02)"/><path class="cls-3" d="M92.88,200.73l-5.2-5a2,2,0,0,0-2.56.39s-5,4.88-9.26,8.79c-4,3.69-8.08,7.48-9.6,8.56,0,0-6.53,6.78-14.86.18a134.57,134.57,0,0,1-22.48-24.12l-.37,1.79a3.58,3.58,0,0,0,.58,2.87s8.73,12.88,19.48,22.15c0,0,5.36,5.66,12.21,7.07a13.87,13.87,0,0,0,11-2.86c2.64-2.07,8.36-7.4,13.13-11.94C89.39,204.37,92.88,200.73,92.88,200.73Z" transform="translate(-28.27 -156.02)"/></svg>