<svg id="图层_1" data-name="图层 1" xmlns="http://www.w3.org/2000/svg" viewBox="0 0 375.15 111.44"><defs><style>.cls-1,.cls-2{fill:#8a8a8a;}.cls-2{fill-rule:evenodd;}</style></defs><title>iflytek</title><rect class="cls-1" x="147.51" y="73.34" width="8.37" height="6.67"/><polygon class="cls-2" points="147.53 82.19 155.93 82.19 155.92 99.87 147.53 102.66 147.53 82.19"/><polygon class="cls-1" points="194.5 73.25 192.26 79.55 175.01 79.55 175.01 85.76 193.29 85.76 190.59 92.12 175.01 92.12 175.01 100.22 165.96 102.76 165.96 73.25 194.5 73.25"/><polygon class="cls-1" points="202.86 73.55 211.7 73.57 211.7 95.62 229.77 95.58 227.07 102.45 202.86 102.43 202.86 73.55"/><polygon class="cls-1" points="222.49 73.23 233.26 73.23 242.34 84.33 251.04 73.23 261.83 73.23 246.61 92.65 246.61 100.55 237.88 102.78 237.88 92.71 222.49 73.23"/><polygon class="cls-1" points="299.65 73.25 296.96 79.99 287.86 79.99 287.86 100.53 279.07 102.76 279.07 79.99 267.66 79.99 267.66 73.25 299.65 73.25"/><polygon class="cls-1" points="304.88 73.53 334.7 73.53 332.44 79.65 313.82 79.65 313.82 85.28 333.43 85.28 331.5 90.79 313.82 90.79 313.82 96.47 334.7 96.47 332.44 102.48 304.88 102.48 304.88 73.53"/><polygon class="cls-1" points="339.49 73.51 348.44 73.51 348.44 84.36 350.65 84.36 362.02 73.41 373.38 73.41 358.91 87.51 375.15 102.28 362.73 102.28 350.65 90.96 348.44 90.96 348.44 100.75 339.49 102.6 339.49 73.51"/><polygon class="cls-1" points="147.85 63.97 150 36.16 157.02 36.16 155.06 61.92 147.85 63.97"/><polygon class="cls-1" points="189.92 16.17 197.89 16.17 197.89 50 201.8 49.81 199.53 56.09 197.89 56.22 197.89 63.97 189.92 66.98 189.92 56.54 175.49 57.5 175.49 51.29 189.92 50.32 189.92 16.17"/><polygon class="cls-1" points="173.09 36.16 174.92 62.95 168.03 59.87 166.32 36.16 173.09 36.16"/><polygon class="cls-1" points="165.44 33.41 165.44 62.82 157.78 66.34 157.78 33.41 148.04 33.41 148.04 27.45 157.78 27.45 157.78 23.41 148.55 24.24 148.55 17.9 174.92 15.65 173.22 21.87 165.44 22.77 165.44 27.45 174.92 27.45 172.01 33.41 165.44 33.41"/><polygon class="cls-1" points="181.31 35.59 187.7 41.16 181.76 47.12 175.37 41.54 181.31 35.59"/><polygon class="cls-1" points="181.38 19.57 187.77 25.14 181.82 31.04 175.37 25.52 181.38 19.57"/><polygon class="cls-1" points="274.36 16.87 280.63 22.32 274.74 28.15 268.48 22.7 274.36 16.87"/><polygon class="cls-1" points="284.86 37.96 290.62 37.96 290.62 23.73 285.25 23.73 285.25 17.26 317.06 17.26 317.06 59.36 321.24 59.36 318.07 65.51 307.96 65.57 308.02 23.73 299.6 23.73 299.6 37.96 306.75 37.96 303.53 44.36 299.6 44.36 299.6 61.98 290.62 65.89 290.62 44.36 284.86 44.36 284.86 37.96"/><polygon class="cls-1" points="267.22 33.41 279.62 33.41 279.68 57.18 285.31 56.22 282.27 63.46 270.63 66.53 270.63 39.82 267.22 39.82 267.22 33.41"/><polygon class="cls-1" points="239.7 25.14 261.39 25.14 258.11 31.61 240.33 31.61 262.08 65.57 250.32 65.57 234.77 40.97 219.84 65.57 207.95 65.57 229.14 31.61 209.34 31.61 209.34 25.14 229.77 25.14 229.77 16.87 239.64 16.87 239.7 25.14"/><path class="cls-1" d="M470.77,418.87l15.13.06L482.54,425H470.77Zm0-7.18V401.63l3.3,3.27a7.1,7.1,0,0,0,2.21,1.66,10.08,10.08,0,0,0,2.9.33h6.72V413h-8.74a16.34,16.34,0,0,1-4.8-.45,4.57,4.57,0,0,1-1.59-.9m0-18.46v-6.72A7.77,7.77,0,0,0,472,384.9l5.45-8.65h8.41l-8,14a9.68,9.68,0,0,1-1.13,1.54,4.78,4.78,0,0,1-1.58,1.15,12.9,12.9,0,0,1-3.42.32Zm-11.83-17-8.28,42.62h20.11V425L440.15,425l8.67-42.36H438.2v-6.35Zm11.83,10.26c-.06.06-.18.12-.25.19a3.28,3.28,0,0,1-1.71.38H456.86l-1.2,6.15h15.11Zm0,15.12-3.34-3.33h-9.31l11.07,11.85a13.11,13.11,0,0,0,1.58,1.54Z" transform="translate(-111.08 -358.74)"/><path class="cls-1" d="M191.27,454.51c-29.75,15-60.25,18.95-68.32-5a5.79,5.79,0,0,1-.23-.74c-.86-3.78-1-8,.12-13.91,8.27-43.19,62-76.11,62-76.11-1.84,1-3.61,2.07-5.36,3.11-39.43,22.55-58.16,46.51-64.91,64.31-5,13.32-3.42,21.95-2.7,24.58a23.89,23.89,0,0,0,5.43,9.82c12,13.36,32.62,10.47,48.68,5.22A129.51,129.51,0,0,0,191.27,454.51Z" transform="translate(-111.08 -358.74)"/><path class="cls-1" d="M239.19,379.37c1.2-.32.44-.18,3.31-.87-4.62-.94-32.72.42-54.18,28l-18.91-27.85h-7.32l22.48,33c-.56.85-1.13,1.7-1.68,2.59l-.37.62-24.76-36.25h-7.32l28.82,42.14c-.56,1-1.17,2-1.83,3.13l-31-45.27h-7.33l34.78,50.8c-8.12,12-21.66,27.17-41.91,31.31,0,0,34.85,3,55.49-24.75l16.8,24.75h7.32l-20.52-30.17c.33-.56.66-1.12,1-1.7.21-.39.48-.88.78-1.41l22.73,33.28h7.32l-26.67-39q1-1.56,2.07-3.3l28.95,42.3h7.32L201.9,413C211,399.82,224.86,383.21,239.19,379.37Z" transform="translate(-111.08 -358.74)"/></svg>