<?xml version="1.0" standalone="no"?><!DOCTYPE svg PUBLIC "-//W3C//DTD SVG 1.1//EN" "http://www.w3.org/Graphics/SVG/1.1/DTD/svg11.dtd"><svg t="1545203618908" class="icon" style="" viewBox="0 0 3241 1024" version="1.1" xmlns="http://www.w3.org/2000/svg" p-id="6167" xmlns:xlink="http://www.w3.org/1999/xlink" width="443.10546875" height="140"><defs><style type="text/css"></style></defs><path d="M4.356544 0.193893v641.581444h301.037823l20.946556-46.746509H53.859976V0.193893H4.356544M2671.052497 313.659077C2667.386698 155.999432 2562.890225 0.193893 2345.668923 0.193893h-217.209183V641.787456h217.209183c224.558959 0 329.043314-164.979124 325.383574-328.128379m-49.491314 0c2.744805 137.476544-85.240426 280.472994-275.89226 280.472994h-167.71787V46.934343h167.71787c185.150107 0 273.123219 132.90187 275.89226 266.724734M938.826225 404.84355c-23.049089-14.129988-48.152237-25.52729-74.38845-34.640284L698.458888 0.193893h-54.078107L356.594367 641.787456h53.157112l69.656237-157.641468h0.109065l10.118817-23.079384c56.847148-43.74116 133.974343-66.250982 211.616568-67.596119 75.697231-1.302722 152.630533 12.566722 212.725396 51.278769l24.848663-39.905704z m-133.356308-50.545609a490.065799 490.065799 0 0 0-104.217751-9.276592c-61.736899 1.230012-123.073893 13.936095-177.418604 38.130367l147.146982-335.29032 134.489373 306.436545z m106.611124 122.116544c-20.316402-13.124166-42.838343-23.073325-66.541822-30.829065l16.923266 38.560568h0.07271l70.552994 157.641468h53.181349l-74.188497-165.372971zM2031.76142 404.84355c-23.049089-14.129988-48.152237-25.52729-74.364213-34.640284L1791.394083 0.193893h-54.065988L1449.54774 641.787456h53.151053L1572.35503 484.145988h0.109065l10.118816-23.079384c56.847148-43.74116 133.974343-66.250982 211.616568-67.596119 75.691172-1.302722 152.630533 12.566722 212.713278 51.278769l24.848663-39.905704z m-133.344189-50.545609a490.138509 490.138509 0 0 0-104.217752-9.276592c-61.736899 1.230012-123.073893 13.936095-177.418603 38.130367l147.134864-335.29032 134.501491 306.436545z m106.599006 122.116544c-20.304284-13.124166-42.838343-23.073325-66.529704-30.829065l16.923266 38.560568h0.078769l70.546935 157.641468h53.181349l-74.200615-165.372971zM3190.923361 404.84355c-23.067266-14.129988-48.152237-25.52729-74.376331-34.640284L2950.556024 0.193893h-54.084166L2608.685444 641.787456h53.163171l69.656237-157.641468h0.090888l10.143053-23.079384c56.841089-43.74116 133.956166-66.250982 211.610509-67.596119 75.691172-1.302722 152.612355 12.566722 212.719337 51.278769l24.854722-39.905704z m-133.350249-50.545609a490.229396 490.229396 0 0 0-104.22381-9.276592c-61.749018 1.230012-123.067834 13.936095-177.418604 38.130367l147.146982-335.29032 134.495432 306.436545z m106.592947 122.116544c-20.322462-13.124166-42.826225-23.073325-66.541822-30.829065l16.929325 38.560568h0.07271l70.559053 157.641468h53.169231l-74.188497-165.372971zM1022.012592 0.193893l20.564828 45.843693h336.429444l-352.710438 566.34471 13.160521 29.393041h358.212165l21.8009-48.56426h-325.056379l347.075408-549.730462 0.060592-43.286722h-419.537041" fill="#8a8a8a" p-id="6168"></path><path d="M2257.980592 1013.923598h-24.442699l-2.247952-40.208663c-15.444828 27.345041-42.462675 44.710627-80.738462 44.710627-64.972497 0-113.22168-50.818272-113.22168-111.931077 0-66.905373 51.145467-115.796828 114.827361-115.796828 47.285775 0 91.996402 27.338982 104.538887 78.163313h-32.810414c-11.251882-34.74329-42.771692-48.57032-71.401278-48.570319-47.606911 0-84.277018 35.058367-84.277018 86.203834 0 44.710627 33.773822 82.344142 82.344142 82.344142 41.172071 0 67.547645-27.017846 74.624758-63.687952h-76.87271v-28.30845h109.677065v117.081373M2412.03503 910.033041c31.198675 0 54.684024-16.402178 54.684023-43.426082 0-26.69671-23.485349-43.104947-54.684023-43.104947h-54.035693v86.531029h54.035693z m-54.035693 28.30845v75.582107h-30.556402V795.20568h85.561562c49.206533 0 83.949822 27.660118 83.949823 71.401279 0 34.737231-21.552473 59.185988-54.999101 68.195976l66.257041 79.120663h-37.633514l-63.687953-75.582107h-48.891456zM2735.606911 904.561609c0-46.637444-36.027834-85.234367-82.665278-85.234366-46.95858 0-82.986414 38.596923-82.986414 85.234366 0 46.643503 36.027834 85.240426 82.986414 85.240427 46.637444 0 82.665278-38.596923 82.665278-85.240427z m31.198675 0a113.657941 113.657941 0 0 1-113.863953 113.863953 113.664 113.664 0 0 1-113.863953-113.863953 113.664 113.664 0 0 1 113.863953-113.863952 113.657941 113.657941 0 0 1 113.863953 113.863952zM3008.348402 919.03697c0 59.82826-37.954651 99.709728-94.886627 99.709728s-94.886627-39.881467-94.886627-99.709728V795.20568h30.556402v123.83129c0 41.172071 25.733302 71.080142 64.330225 71.080142 38.596923 0 64.330225-29.908071 64.330225-71.080142V795.20568h30.556402v123.83129M3148.254675 917.752426c33.452686 0 55.968568-19.619598 55.968568-48.570319 0-27.338982-22.515882-45.680095-55.968568-45.680095h-47.600853v94.250414h47.600853z m0.963408-122.546746c51.145467 0 85.246485 29.586935 85.246485 73.976427 0 46.316308-35.706698 76.87271-89.106177 76.87271h-44.704569v67.868781h-30.556402V795.20568h79.120663zM4.356544 1017.849941h1942.364403v-226.237349H4.356544v226.237349z" fill="#8a8a8a" p-id="6169"></path></svg>