<svg id="图层_1" data-name="图层 1" xmlns="http://www.w3.org/2000/svg" xmlns:xlink="http://www.w3.org/1999/xlink" viewBox="0 0 459.97 106.75"><defs><style>.cls-1{fill:none;}.cls-2{clip-path:url(#clip-path);}.cls-3{fill:#8a8a8a;fill-rule:evenodd;}</style><clipPath id="clip-path" transform="translate(-26.51 -202.62)"><rect class="cls-1" width="512" height="512"/></clipPath></defs><title>yahoo</title><g class="cls-2"><path class="cls-3" d="M236.53,213.85q1,19.65,1.07,39.32c-15.7.37-31.38.4-47,0q.07-19.68,1.07-39.32a29.5,29.5,0,0,1-14,0c1.22,28.13,1.12,56.21,0,84.25a29.54,29.54,0,0,1,14,0l0,0,0,0c-.69-13.08-1-26.14-1.06-39.18q23.52-.33,47,0c0,13.05-.37,26.12-1.06,39.2l0,0,0,0a29.58,29.58,0,0,1,14,0c-1.12-28-1.23-56.12,0-84.25A29.37,29.37,0,0,1,236.53,213.85Zm166.4,85.37c-20.09,0-38.39-11.78-38.39-43.6,0-33,20.28-42.73,38.35-42.73,22.27,0,38.68,13.53,38.68,43.37C441.57,288.7,421.73,299.22,402.93,299.22Zm-.07-91.57c-29.67,0-52.34,16.84-52.34,48.15,0,25.8,15.08,48.51,52.58,48.51,31.75,0,52.48-17.45,52.48-48.05C455.58,227.4,436.24,207.65,402.86,207.65Zm77.74-3.8h0a13.47,13.47,0,0,0-1.46-.12c-3.37,0-6.72,2-6.72,7-2,25.35-4.08,50.78-7.5,75h0a9,9,0,0,1,5.24.81h0c3.89-24.58,13.12-61.38,15.48-71.8a23.49,23.49,0,0,0,.85-4.43C486.49,206.6,484.13,204.44,480.6,203.85Zm-16.11,92.07c-4.42,0-6.62,3.37-6.62,7,0,4.28,3.41,6.47,7.63,6.47,3.05,0,6.38-1.86,6.38-6.89C471.88,298.45,468.71,295.92,464.49,295.92Zm-164.37-1.47c-19.86,0-31.52-14.23-31.52-38.23,0-27.14,14.37-38.06,30.7-38.39.26,0,.52,0,.78,0,18.22,0,31.59,12.4,31.59,38.32S318.31,294.45,300.12,294.45ZM300,212.72c-29.78,0-45.41,18.88-45.41,43.36,0,26.8,17.06,43.14,45.37,43.14,30.6,0,45.55-18.42,45.55-42.85C345.54,229.12,327.69,212.72,300,212.72Zm-189.16-10.1h0a28.94,28.94,0,0,1-14.15,0c-4,7.44-18.71,31.49-28.08,46.9-9.5-15.74-20.75-33.91-28.08-46.9-5.81,1.24-8.24,1.32-14,0C38,220,56.46,253,62.74,263.84l-.85,45.21a51.75,51.75,0,0,1,6.75-.68,45.1,45.1,0,0,1,6.73.68l-.84-45.21C86.24,243.3,105.56,209.79,110.87,202.62ZM90.54,298.11l0,0,0,0Zm55.88-30.61q-14.94.53-29.87,0h0c6.09-15.46,11.88-30.38,14.93-39.16,4.66,13,9.78,26.05,15,39.17Zm-10-53.67h0a14,14,0,0,1-9.78,0h0c-11.31,28.37-24.34,60.39-36,84.28l.1,0-.06,0a28.65,28.65,0,0,1,13.85,0h0c3-7.54,6.39-16.09,9.79-24.69h0c11.51-.33,23-.38,34.53,0h0c3.27,8.24,6.55,16.48,9.75,24.72h0a28.92,28.92,0,0,1,14,0h0C164.08,282.31,147.14,241.07,136.38,213.83Z" transform="translate(-26.51 -202.62)"/></g></svg>