<svg width="138" height="32" viewBox="0 0 138 32" fill="none" xmlns="http://www.w3.org/2000/svg">
  <path fill-rule="evenodd" clip-rule="evenodd" d="M129.731 3.85779H135.891V4.43903H130.374V7.86494H135.334V8.44619H130.374V11.9342H135.952V12.5155H129.731V3.85779Z" fill="black"/>
  <path fill-rule="evenodd" clip-rule="evenodd" d="M109.942 3.85779H110.585V7.87742H116.126V3.85779H116.769V12.5155H116.126V8.45867H110.585V12.5155H109.942V3.85779Z" fill="black"/>
  <path fill-rule="evenodd" clip-rule="evenodd" d="M94.3453 12.6641C93.7266 12.6641 93.1538 12.5486 92.626 12.3178C92.0985 12.0869 91.6426 11.7714 91.2594 11.3716C90.8759 10.9718 90.5768 10.4997 90.3626 9.95533C90.1483 9.41125 90.0412 8.83 90.0412 8.2116V8.18692C90.0412 7.57664 90.1503 6.99976 90.369 6.45539C90.5873 5.91101 90.8881 5.43486 91.2716 5.02695C91.6548 4.61874 92.1106 4.29735 92.6382 4.06218C93.166 3.82701 93.7432 3.70972 94.37 3.70972C94.7576 3.70972 95.108 3.74282 95.421 3.80872C95.7346 3.87492 96.0252 3.96956 96.2932 4.09324C96.5611 4.21692 96.8126 4.36326 97.0477 4.53223C97.2829 4.70149 97.5117 4.88904 97.7341 5.09489L97.2765 5.56493C97.0869 5.38348 96.8889 5.21451 96.6828 5.05773C96.4766 4.90095 96.256 4.76711 96.0211 4.65591C95.7862 4.54442 95.5308 4.45616 95.2544 4.38996C94.978 4.32376 94.6792 4.29096 94.3575 4.29096C93.8381 4.29096 93.3556 4.38996 92.9105 4.58768C92.4654 4.78539 92.0799 5.05976 91.7541 5.41019C91.4287 5.76062 91.1729 6.17115 90.9873 6.64091C90.8015 7.11096 90.7089 7.61787 90.7089 8.16225V8.18692C90.7089 8.73129 90.8039 9.24025 90.9935 9.71436C91.183 10.1885 91.4406 10.6007 91.7663 10.9512C92.0921 11.3016 92.4773 11.5777 92.9224 11.7798C93.3678 11.9818 93.8503 12.0829 94.3697 12.0829C94.9963 12.0829 95.5403 11.9676 96.0022 11.7365C96.4639 11.5057 96.9133 11.1718 97.3506 10.7349L97.7834 11.1553C97.5523 11.378 97.3154 11.5821 97.0721 11.7676C96.8288 11.9531 96.5693 12.1119 96.2929 12.2437C96.0165 12.3755 95.718 12.4789 95.396 12.5529C95.0749 12.627 94.7245 12.6641 94.3453 12.6641Z" fill="black"/>
  <path fill-rule="evenodd" clip-rule="evenodd" d="M73.5541 3.7959H74.1725L78.2046 12.5154H77.4997L76.3988 10.0912H71.2907L70.1897 12.5154H69.522L73.5541 3.7959ZM76.1264 9.50992L73.8508 4.50083L71.5627 9.50992H76.1264Z" fill="black"/>
  <path fill-rule="evenodd" clip-rule="evenodd" d="M51.6123 3.85779H54.754C55.2321 3.85779 55.6671 3.91759 56.0587 4.03721C56.4504 4.15682 56.7886 4.32986 57.0728 4.55661C57.3574 4.78336 57.578 5.05947 57.7345 5.38522C57.8913 5.71097 57.9697 6.08405 57.9697 6.50445V6.52913C57.9697 6.98263 57.8788 7.38241 57.6976 7.72878C57.5162 8.07514 57.2708 8.36373 56.9616 8.59454C56.6524 8.82536 56.2939 8.99869 55.8857 9.11395C55.4775 9.2295 55.0469 9.28728 54.5931 9.28728H52.2557V12.5155H51.6126V3.85779H51.6123ZM54.6303 8.70603C55.0344 8.70603 55.4011 8.65668 55.7312 8.55768C56.061 8.45664 56.3432 8.31437 56.5784 8.12682C56.8136 7.9413 56.9968 7.71455 57.1289 7.44861C57.2607 7.18469 57.3269 6.89001 57.3269 6.56629V6.54161C57.3269 6.19321 57.263 5.88807 57.135 5.62619C57.0072 5.36634 56.8278 5.14801 56.597 4.97294C56.3662 4.79962 56.0898 4.66781 55.7684 4.5749C55.447 4.48432 55.0922 4.43903 54.7049 4.43903H52.2559V8.70603H54.6303Z" fill="black"/>
  <path fill-rule="evenodd" clip-rule="evenodd" d="M34.742 3.7959H35.3604L39.3925 12.5154H38.6876L37.5866 10.0912H32.4785L31.3776 12.5154H30.7095L34.742 3.7959ZM37.3146 9.50992L35.0387 4.50083L32.7506 9.50992H37.3146Z" fill="black"/>
  <path fill-rule="evenodd" clip-rule="evenodd" d="M137.12 20.5709C137.12 22.665 136.207 23.9846 134.379 24.5293L137.702 29.1415H134.978L131.946 24.8745H129.131V29.1415H126.989V16.4493H131.71C133.647 16.4493 135.032 16.7762 135.868 17.4298C136.703 18.0836 137.12 19.1306 137.12 20.5709ZM131.8 22.9316C133.011 22.9316 133.834 22.744 134.27 22.3686C134.706 21.9935 134.924 21.3914 134.924 20.5619C134.924 19.733 134.7 19.1639 134.252 18.8553C133.804 18.5464 133.005 18.3919 131.855 18.3919H129.131V22.9316H131.8Z" fill="black"/>
  <path fill-rule="evenodd" clip-rule="evenodd" d="M122.856 27.3893C121.573 28.6421 119.987 29.2686 118.099 29.2686C116.21 29.2686 114.624 28.6424 113.341 27.3893C112.058 26.1365 111.417 24.5748 111.417 22.7045C111.417 20.8342 112.058 19.2728 113.341 18.0197C114.624 16.7672 116.21 16.1404 118.099 16.1404C119.987 16.1404 121.573 16.7669 122.856 18.0197C124.139 19.2725 124.781 20.8342 124.781 22.7045C124.781 24.5748 124.139 26.1365 122.856 27.3893ZM121.286 19.4455C120.42 18.5496 119.358 18.1019 118.099 18.1019C116.84 18.1019 115.778 18.5496 114.912 19.4455C114.047 20.3412 113.613 21.4276 113.613 22.7048C113.613 23.9819 114.046 25.0684 114.912 25.9643C115.777 26.86 116.84 27.308 118.099 27.308C119.358 27.308 120.42 26.86 121.286 25.9643C122.151 25.0684 122.584 23.9819 122.584 22.7048C122.584 21.4276 122.151 20.3412 121.286 19.4455Z" fill="black"/>
  <path fill-rule="evenodd" clip-rule="evenodd" d="M106.903 18.4102V29.1415H104.76V18.4102H100.911V16.4493H110.752V18.4102H106.903Z" fill="black"/>
  <path fill-rule="evenodd" clip-rule="evenodd" d="M91.9303 26.2543L90.6593 29.1414H88.3714L93.9641 16.4492H96.2519L101.845 29.1414H99.5568L98.2854 26.2543H91.9303ZM97.4135 24.2751L95.1077 19.0459L92.8019 24.2751H97.4135Z" fill="black"/>
  <path fill-rule="evenodd" clip-rule="evenodd" d="M83.5125 29.1415H77.9561V16.4493H82.8952C83.7546 16.4493 84.4961 16.5521 85.1194 16.758C85.7425 16.9638 86.2056 17.2422 86.5084 17.5935C87.0893 18.2471 87.38 18.9857 87.38 19.8088C87.38 20.8011 87.0653 21.5397 86.4355 22.024C86.2056 22.1936 86.0482 22.2992 85.9634 22.3416C85.8787 22.384 85.7274 22.4537 85.5097 22.5507C86.2965 22.7202 86.923 23.0741 87.3893 23.6127C87.855 24.1513 88.0881 24.8202 88.0881 25.6192C88.0881 26.5027 87.7856 27.2834 87.1802 27.9613C86.466 28.7478 85.2434 29.1415 83.5125 29.1415ZM80.099 27.162H83.4582C84.245 27.162 84.8471 27.038 85.2649 26.7901C85.6824 26.5419 85.8911 26.0727 85.8911 25.3826C85.8911 24.2569 84.9897 23.6943 83.1858 23.6943H80.099V27.162ZM80.099 21.7148H82.8226C84.3721 21.7148 85.1467 21.1884 85.1467 20.1351C85.1467 19.5301 84.9592 19.0943 84.5841 18.8277C84.209 18.5615 83.6277 18.4282 82.8409 18.4282H80.0993V21.7148H80.099Z" fill="black"/>
  <path fill-rule="evenodd" clip-rule="evenodd" d="M67.3596 26.2361C67.9406 26.9141 68.7274 27.2529 69.72 27.2529C70.7127 27.2529 71.4995 26.9141 72.0804 26.2361C72.6617 25.5582 72.952 24.6382 72.952 23.4762V16.4493H75.0946V23.5671C75.0946 25.395 74.5926 26.8023 73.5878 27.7888C72.583 28.7751 71.2939 29.2686 69.7203 29.2686C68.1467 29.2686 66.8573 28.7754 65.8528 27.7888C64.848 26.8023 64.3457 25.395 64.3457 23.5671V16.4493H66.4883V23.4762C66.488 24.6382 66.7787 25.5582 67.3596 26.2361Z" fill="black"/>
  <path fill-rule="evenodd" clip-rule="evenodd" d="M57.4349 27.1985C58.1732 27.1985 58.8087 27.0746 59.3415 26.8266C59.874 26.5784 60.4308 26.1818 61.0118 25.6371L62.3917 27.0534C61.0481 28.5422 59.4167 29.2866 57.4985 29.2866C55.5797 29.2866 53.9881 28.6694 52.7231 27.4346C51.4581 26.1998 50.8255 24.6381 50.8255 22.7498C50.8255 20.8615 51.47 19.2879 52.7594 18.029C54.0484 16.7698 55.6766 16.1404 57.6436 16.1404C59.6106 16.1404 61.2539 16.8668 62.5732 18.3193L61.2115 19.8084C60.6065 19.2272 60.0342 18.8219 59.4957 18.5919C58.9571 18.362 58.3245 18.247 57.598 18.247C56.3151 18.247 55.2376 18.6616 54.3661 19.4908C53.4945 20.3197 53.0587 21.3791 53.0587 22.6682C53.0587 23.9573 53.4916 25.0347 54.3571 25.9002C55.2226 26.7659 56.2486 27.1985 57.4349 27.1985Z" fill="black"/>
  <path fill-rule="evenodd" clip-rule="evenodd" d="M46.4749 16.4493H48.6175V29.1415H46.2934L39.1031 19.8811V29.1415H36.9607V16.4493H39.1031L46.4749 25.9272V16.4493Z" fill="black"/>
  <path d="M33.9354 16.4493H31.793V29.1415H33.9354V16.4493Z" fill="black"/>
  <path fill-rule="evenodd" clip-rule="evenodd" d="M13.3408 4.38531C13.3399 4.29124 13.3384 4.19689 13.3361 4.10137C13.3556 4.13243 13.4104 4.22766 13.5013 4.38531H13.3408ZM9.92559 14.3234C8.92917 16.1763 8.36099 18.1096 8.21582 20.1216C8.08663 21.9132 8.28028 23.4581 8.80259 24.7533C8.87401 24.9295 8.94311 25.0924 9.01221 25.2433C8.59935 24.9513 8.20537 24.6467 7.82969 24.3291C7.79804 24.3041 7.7751 24.2937 7.76058 24.2974C8.25386 25.0863 8.86849 25.8011 9.60535 26.4421C9.71916 26.5414 9.90904 26.5884 9.95578 26.7345C10.089 27.1534 9.72671 30.9153 10.8904 31.7918C11.6304 32.3486 14.9013 31.6483 15.9111 31.3223C21.1797 29.6207 25.2661 24.7544 24.6582 17.7414C23.9916 10.0503 18.9247 2.22872 13.8712 0.348824C12.5052 -0.159547 12.2021 -0.113087 10.7835 0.493706C5.85253 2.60239 1.00892 10.234 0.358284 17.7414C-0.266801 24.955 4.07367 29.8971 9.55978 31.4602C9.70814 31.5026 9.85156 31.5415 9.99092 31.5784C9.84952 31.286 9.73397 30.9547 9.64019 30.604C3.89394 28.8951 0.679685 23.8004 1.19851 17.8146C1.69439 12.0922 5.52968 3.65803 11.1145 1.26947C12.2819 0.770682 12.3925 0.699546 13.5762 1.13998C19.3088 3.27218 23.3131 11.9975 23.8171 17.8149C24.3562 24.0344 20.8493 29.2676 14.7843 30.7663C14.1743 30.917 13.6453 31.0166 13.15 31.0662C11.5785 31.2239 11.032 31.502 10.7437 29.8654C10.1088 26.2557 10.5887 19.7235 12.1594 17.2171C12.1719 17.0351 12.1614 17.3684 12.0433 17.6529C11.9887 17.7806 11.9536 17.8587 11.9382 17.8988C10.9975 20.0537 10.4726 26.3048 10.9203 27.492C10.7908 27.0666 11.0228 26.1709 11.3587 25.9872L11.5512 25.8524C12.6045 25.0938 13.2853 23.902 14.0466 22.3926C14.0335 22.3717 14.0088 22.3743 13.9734 22.3998C13.618 22.6968 13.2516 22.9636 12.8751 23.1997C13.7324 22.2991 14.4809 21.1494 15.1225 19.7488C15.1051 19.7233 15.0755 19.7279 15.0331 19.761C14.7799 19.9895 14.5221 20.2046 14.2588 20.4067C15.3353 18.4574 16.2836 16.1995 16.3829 13.619C16.4319 11.9487 16.1265 10.3394 15.4657 8.80242C15.2378 8.27692 14.9199 7.64893 14.5099 6.908C13.904 5.81548 13.5765 5.22379 13.5243 5.13785C13.5513 7.50609 13.1335 9.43128 12.2715 10.898C12.0491 11.2874 11.6545 11.855 11.0843 12.5991C10.5547 13.293 10.1663 13.8676 9.92559 14.3234Z" fill="url(#paint0_linear_2829_2038)"/>
  <defs>
    <linearGradient id="paint0_linear_2829_2038" x1="10.4492" y1="29.8098" x2="14.715" y2="7.35415" gradientUnits="userSpaceOnUse">
      <stop stop-color="#1A1853"/>
      <stop offset="0.5" stop-color="#CA2026"/>
      <stop offset="1" stop-color="#F8991D"/>
    </linearGradient>
  </defs>
</svg>
