<svg id="图层_1" data-name="图层 1" xmlns="http://www.w3.org/2000/svg" xmlns:xlink="http://www.w3.org/1999/xlink" viewBox="0 0 416.01 256"><defs><style>.cls-1{fill:none;}.cls-2{clip-path:url(#clip-path);}.cls-3{fill:#e6e6e6;}.cls-4{fill:#ccc;}</style><clipPath id="clip-path" transform="translate(-48 -128)"><rect class="cls-1" width="512" height="512"/></clipPath></defs><title>email_gray</title><g class="cls-2"><path class="cls-3" d="M67,148.7c11,5.8,163.8,89.1,169.5,92.1s11.5,4.4,20.5,4.4,14.8-1.4,20.5-4.4S436,154.5,447,148.7c4.1-2.1,11-5.9,12.5-10.2,2.6-7.6-.2-10.5-11.3-10.5H65.8c-11.1,0-13.9,3-11.3,10.5C56,142.9,62.9,146.6,67,148.7Z" transform="translate(-48 -128)"/></g><g class="cls-2"><path class="cls-4" d="M455.7,153.2c-8.2,4.2-81.8,56.6-130.5,88.1l82.2,92.5c2,2,2.9,4.4,1.8,5.6s-3.8.5-5.9-1.4l-98.6-83.2c-14.9,9.6-25.4,16.2-27.2,17.2-7.7,3.9-13.1,4.4-20.5,4.4s-12.8-.5-20.5-4.4c-1.9-1-12.3-7.6-27.2-17.2L110.7,338c-2,2-4.7,2.6-5.9,1.4s-.3-3.6,1.7-5.6l82.1-92.5c-48.7-31.5-123.1-83.9-131.3-88.1-8.8-4.5-9.3.8-9.3,4.9v205c0,9.3,13.7,20.9,23.5,20.9h371c9.8,0,21.5-11.7,21.5-20.9v-205C464,153.9,464.6,148.7,455.7,153.2Z" transform="translate(-48 -128)"/></g></svg>