<svg id="图层_1" data-name="图层 1" xmlns="http://www.w3.org/2000/svg" xmlns:xlink="http://www.w3.org/1999/xlink" viewBox="0 0 512 512"><defs><style>.cls-1{fill:none;}.cls-2{clip-path:url(#clip-path);}.cls-3{fill:#4aba58;}</style><clipPath id="clip-path"><rect class="cls-1" width="512" height="512"/></clipPath></defs><title>github_green</title><g class="cls-2"><path class="cls-3" d="M256,0C114.63,0,0,114.63,0,256,0,369.13,73.34,465.06,175.08,498.91c12.8,2.34,17.47-5.57,17.47-12.32,0-6.09-.24-26.28-.36-47.65C121,454.41,106,408.75,106,408.75c-11.65-29.56-28.42-37.44-28.42-37.44-23.26-15.87,1.77-15.56,1.77-15.56,25.7,1.78,39.23,26.38,39.23,26.38,22.85,39.12,59.94,27.81,74.5,21.25,2.33-16.5,8.95-27.82,16.25-34.19-56.83-6.47-116.61-28.44-116.61-126.53,0-28,10-50.78,26.33-68.71-2.61-6.5-11.42-32.54,2.53-67.78,0,0,21.47-6.87,70.41,26.25a242.32,242.32,0,0,1,128.15,0c48.85-33.15,70.35-26.25,70.35-26.25,14,35.27,5.19,61.28,2.56,67.75,16.41,17.93,26.31,40.74,26.31,68.71,0,98.34-59.87,120-116.9,126.34,9.22,7.94,17.37,23.5,17.37,47.38,0,34.21-.34,61.81-.34,70.25,0,6.81,4.65,14.78,17.62,12.28C438.72,465,512,369.06,512,256,512,114.63,397.38,0,256,0Z"/></g></svg>